<!-- Generator: Adobe Illustrator 23.0.2, SVG Export Plug-In  -->
<svg version="1.1" xmlns="http://www.w3.org/2000/svg" xmlns:xlink="http://www.w3.org/1999/xlink" x="0px" y="0px"
    width="482.2px" height="103.2px" viewBox="0 0 482.2 103.2" style="enable-background:new 0 0 482.2 103.2;"
    xml:space="preserve">
    <style type="text/css">
        .st0 {
            fill: none;
            stroke: #F19C1A;
            stroke-width: 5;
            stroke-miterlimit: 10;
        }

        .st1 {
            fill: #F19C1A;
        }

        .st2 {
            fill: #15213C;
        }
    </style>
    <defs>
    </defs>
    <path class="st0" d="M33.1,88.3c-4.6,0-8.8-0.7-12.8-2c-4-1.3-7.4-3.3-10.4-5.8C7,78,4.7,75,3.2,71.6c-0.9-1.8-0.9-3.8,0-5.5
	c0.6-1.1,1.8-2.5,4.3-3.2c0.6-0.2,1.2-0.2,1.8-0.2c1,0,2.1,0.3,3,0.8c1.4,0.7,2.5,1.9,3.3,3.3c0.8,1.5,2,3,3.6,4.2
	c1.6,1.3,3.7,2.3,6,3.1c2.4,0.7,5.1,1.1,8,1.1c3.1,0,5.9-0.5,8.3-1.5c2.3-1,4-2.3,5.2-4.1c1.2-1.8,1.8-3.9,1.8-6.5
	c0-3.3-1.2-6.1-3.6-8.5c-2.5-2.5-6.7-4.1-12.5-4.8c-8.3-1-15-3.7-19.8-7.9c-5-4.4-7.6-10-7.6-16.5c0-4.7,1.3-8.8,3.8-12.3
	c2.5-3.4,5.9-6.1,10.1-7.9c4.1-1.8,8.9-2.7,14.2-2.7c4,0,7.7,0.7,11,1.9c3.3,1.3,6.2,3,8.7,5.1c2.4,2.1,4.5,4.4,6,6.9
	c1.3,2.1,1.3,4,1,5.2c-0.4,1.8-1.5,3.2-3.1,4.1l-0.1,0.1l-0.1,0c-1,0.4-2,0.7-3,0.7c-0.7,0-1.4-0.1-2.2-0.3c-1.7-0.5-3-1.6-3.9-3.1
	c-0.9-1.3-1.9-2.6-3.2-3.7c-1.2-1.1-2.8-2-4.5-2.7c-1.8-0.7-4.1-1.1-6.8-1.1c-4.6,0-8.3,1-11,2.8c-2.4,1.7-3.6,4.1-3.6,7.4
	c0,1.7,0.4,3.3,1.4,4.7c0.9,1.4,2.5,2.7,4.8,3.9c2.5,1.2,6,2.2,10.3,2.8c8.9,1.3,15.7,4.1,20.1,8.4c4.6,4.4,6.9,10.3,6.9,17.3
	c0,4-0.7,7.6-2.2,10.8c-1.5,3.2-3.6,5.9-6.3,8.1c-2.6,2.1-5.7,3.7-9.2,4.8C40.7,87.7,37,88.3,33.1,88.3z" />
    <path class="st0" d="M191.4,88.3c-4.6,0-8.8-0.7-12.8-2c-4-1.3-7.4-3.3-10.4-5.8c-3-2.5-5.3-5.5-6.8-8.9c-0.9-1.8-0.9-3.8,0-5.5
	c0.6-1.1,1.8-2.5,4.3-3.2c0.6-0.2,1.2-0.2,1.8-0.2c1,0,2.1,0.3,3,0.8c1.4,0.7,2.5,1.9,3.3,3.3c0.8,1.5,2,3,3.6,4.2
	c1.6,1.3,3.7,2.3,6,3.1c2.4,0.7,5.1,1.1,8,1.1c3.1,0,5.9-0.5,8.3-1.5c2.3-1,4-2.3,5.2-4.1c1.2-1.8,1.8-3.9,1.8-6.5
	c0-3.3-1.2-6.1-3.6-8.5c-2.5-2.5-6.7-4.1-12.5-4.8c-8.3-1-15-3.7-19.8-7.9c-5-4.4-7.6-10-7.6-16.5c0-4.7,1.3-8.8,3.8-12.3
	c2.5-3.4,5.9-6.1,10.1-7.9c4.1-1.8,8.9-2.7,14.2-2.7c4,0,7.7,0.7,11,1.9c3.3,1.3,6.2,3,8.7,5.1c2.4,2.1,4.5,4.4,6,6.9
	c1.3,2.1,1.3,4,1,5.2c-0.4,1.8-1.5,3.2-3.1,4.1l-0.1,0.1l-0.1,0c-1,0.4-2,0.7-3,0.7c-0.7,0-1.4-0.1-2.2-0.3c-1.7-0.5-3-1.6-3.9-3.1
	c-0.9-1.3-2-2.6-3.2-3.7c-1.2-1.1-2.8-2-4.5-2.7c-1.8-0.7-4.1-1.1-6.8-1.1c-4.6,0-8.3,1-11,2.8c-2.4,1.7-3.6,4.1-3.6,7.4
	c0,1.7,0.4,3.3,1.4,4.7c0.9,1.4,2.5,2.7,4.8,3.9c2.5,1.2,6,2.2,10.3,2.8c8.9,1.3,15.7,4.1,20.1,8.4c4.6,4.4,6.9,10.3,6.9,17.3
	c0,4-0.7,7.6-2.2,10.8c-1.5,3.2-3.6,5.9-6.3,8.1c-2.6,2.1-5.7,3.7-9.2,4.8C199,87.7,195.3,88.3,191.4,88.3z" />
    <path class="st0" d="M151.4,47.7c0,22.4-18.1,40.5-40.5,40.5c-2.1,0-4.1-0.1-6.1-0.4L92.3,99.5c-2.8,2.6-7.3,0.6-7.3-3.1V79
	c-9-7.4-14.7-18.7-14.7-31.3c0-22.4,18.1-40.5,40.5-40.5C133.2,7.2,151.4,25.3,151.4,47.7z" />
    <circle class="st1" cx="93.2" cy="46.8" r="3.4" />
    <circle class="st1" cx="109.1" cy="46.8" r="3.4" />
    <circle class="st1" cx="125.1" cy="46.8" r="3.4" />
    <g>
        <g>
            <path class="st2" d="M284.8,13.5c1.4-2.1,4.1-1.4,4.1,1.1v33.8c0,2.8-4.3,2.8-4.3,0V21.6l-12,18.7c-0.9,1.7-3.2,1.7-4.1,0
			l-12-18.7v26.7c0,2.8-4.3,2.8-4.3,0V14.5c0-2.5,2.8-3.2,4-1.1l14.3,22.3L284.8,13.5z" />
            <path class="st2" d="M310,40.1l-4.8,9.3c-1.1,2.2-4.9,0.6-3.9-1.7l17.7-34.9c0.4-0.8,1.2-1.1,1.9-1.1s1.5,0.4,1.9,1.1l17.7,34.8
			c1.5,2.5-2.8,4-3.9,1.7l-4.6-9.1H310z M321.1,17.9l-9.3,18.5h18.5L321.1,17.9z" />
            <path class="st2" d="M357.5,36.9v11.4c0,2.7-4.3,2.7-4.3,0.1V14.6c0-1.2,0.9-2.1,2.2-2.1h13.9c10.2,0,15.3,5.8,15.3,12.6
			c0,5.9-3.2,10.2-10.4,11.4l9.5,10.3c2.2,2.2-1,4.8-2.9,2.8l-11.9-12.9H357.5z M357.5,33.2h11.9c7.7,0,11-3.6,10.9-8
			c-0.1-4.8-4.1-8.7-10.9-8.7h-11.9V33.2z" />
            <path class="st2" d="M397.2,30.6c0-9.2,6.2-17.1,15.6-18.6c2.2-0.3,4.2-0.2,6.2,0c9,1.4,16,8.9,16,18.6c0,12.2-8.8,20-18.8,20
			C405.6,50.6,397.2,43.1,397.2,30.6z M401.6,30.8c0,9.6,6.3,15.7,14.6,15.7c7.9,0,14.4-5.9,14.4-15.7c0-7.6-5-13.6-12.2-14.8
			c-1.8-0.2-3.5-0.2-5.1,0C406.2,17.1,401.6,22.8,401.6,30.8z" />
            <path class="st2" d="M475.4,48.5c-2.8,1.3-6,2.1-8.8,2.1c-10,0-19.1-8.2-19.1-19.8c0-9.6,6.9-17.3,15.9-18.7
			c6.9-0.9,12.9,0.8,17.5,5.6c1.8,2-1.4,4.4-3.1,2.6c-4-4.2-8.6-4.9-13.8-4.3c-7.2,1.1-12.3,6.2-12.3,14.7c0,8.9,6.9,15.7,15,15.7
			c2.2,0,4.6-0.6,6.8-1.7c1.8-0.9,3.6-2.3,4.8-3.9c1.4-2,4.9,0.2,3.4,2.3C480.2,45.5,478,47.2,475.4,48.5z" />
        </g>
        <g>
            <path class="st2" d="M253.2,81.3c-0.3,0-0.5-0.1-0.7-0.3c-0.2-0.2-0.3-0.4-0.3-0.7V63.4c0-0.3,0.1-0.5,0.3-0.7
			c0.2-0.2,0.4-0.3,0.7-0.3h4.5c1.2,0,2.2,0.2,3.1,0.7c0.9,0.5,1.6,1.2,2.2,2c0.5,0.9,0.8,1.9,0.8,3c0,1.1-0.3,2.1-0.8,2.9
			c-0.5,0.9-1.2,1.5-2.2,2c-0.9,0.5-2,0.7-3.1,0.7h-3.6v6.4c0,0.3-0.1,0.5-0.3,0.7C253.7,81.2,253.5,81.3,253.2,81.3z M254.1,72.1
			h3.6c0.8,0,1.5-0.2,2.2-0.5c0.6-0.3,1.1-0.8,1.5-1.4c0.4-0.6,0.6-1.2,0.6-2c0-0.8-0.2-1.5-0.6-2.1c-0.4-0.6-0.9-1.1-1.5-1.4
			c-0.6-0.3-1.4-0.5-2.2-0.5h-3.6V72.1z M263.3,81.3c-0.2,0-0.4,0-0.5-0.1c-0.1-0.1-0.2-0.2-0.3-0.4l-4.6-7.4l1.9-0.5l4.3,6.9
			c0.2,0.4,0.3,0.7,0.1,1C264,81.1,263.7,81.3,263.3,81.3z" />
            <path class="st2" d="M272.7,81.4c-1.2,0-2.3-0.3-3.3-0.9c-1-0.6-1.8-1.4-2.3-2.4c-0.6-1-0.9-2.1-0.9-3.4c0-1.3,0.3-2.4,0.9-3.4
			c0.6-1,1.4-1.8,2.4-2.4c1-0.6,2.1-0.9,3.4-0.9c1.3,0,2.4,0.3,3.4,0.9c1,0.6,1.8,1.4,2.4,2.4c0.6,1,0.9,2.2,0.9,3.4l-0.7,0.6
			c0,1.2-0.3,2.2-0.8,3.1s-1.3,1.7-2.2,2.2C274.9,81.1,273.9,81.4,272.7,81.4z M272.9,79.7c0.9,0,1.8-0.2,2.5-0.6
			c0.7-0.4,1.3-1,1.7-1.8c0.4-0.8,0.6-1.6,0.6-2.6c0-1-0.2-1.8-0.6-2.6c-0.4-0.8-1-1.4-1.7-1.8c-0.7-0.4-1.6-0.7-2.5-0.7
			c-0.9,0-1.7,0.2-2.5,0.7c-0.7,0.4-1.3,1-1.8,1.8c-0.4,0.8-0.6,1.6-0.6,2.6c0,0.9,0.2,1.8,0.6,2.6c0.4,0.8,1,1.4,1.8,1.8
			C271.1,79.5,272,79.7,272.9,79.7z M278.6,81.3c-0.3,0-0.5-0.1-0.7-0.3c-0.2-0.2-0.3-0.4-0.3-0.7v-4.1l0.5-1.9l1.4,0.4v5.7
			c0,0.3-0.1,0.5-0.3,0.7C279.1,81.2,278.9,81.3,278.6,81.3z" />
            <path class="st2" d="M289.8,81.4c-1.3,0-2.4-0.3-3.4-0.9c-1-0.6-1.8-1.4-2.4-2.4s-0.9-2.1-0.9-3.4V63.4c0-0.3,0.1-0.5,0.3-0.7
			c0.2-0.2,0.4-0.3,0.7-0.3c0.3,0,0.5,0.1,0.7,0.3c0.2,0.2,0.3,0.4,0.3,0.7v7.1c0.5-0.8,1.2-1.4,2.1-1.8s1.8-0.7,2.9-0.7
			c1.2,0,2.3,0.3,3.3,0.9c1,0.6,1.8,1.4,2.3,2.4c0.6,1,0.9,2.1,0.9,3.4c0,1.3-0.3,2.4-0.9,3.4c-0.6,1-1.4,1.8-2.4,2.4
			C292.3,81.1,291.1,81.4,289.8,81.4z M289.8,79.7c0.9,0,1.8-0.2,2.5-0.7c0.7-0.4,1.3-1,1.7-1.8c0.4-0.8,0.6-1.6,0.6-2.6
			c0-0.9-0.2-1.8-0.6-2.6c-0.4-0.8-1-1.4-1.7-1.8c-0.7-0.4-1.6-0.6-2.5-0.6c-0.9,0-1.7,0.2-2.5,0.6c-0.7,0.4-1.3,1-1.7,1.8
			c-0.4,0.8-0.6,1.6-0.6,2.6c0,1,0.2,1.8,0.6,2.6c0.4,0.8,1,1.4,1.7,1.8C288.1,79.5,288.9,79.7,289.8,79.7z" />
            <path class="st2" d="M306,81.4c-1.2,0-2.3-0.3-3.3-0.9c-1-0.6-1.8-1.4-2.3-2.4c-0.6-1-0.9-2.1-0.9-3.4c0-1.3,0.3-2.4,0.9-3.4
			c0.6-1,1.4-1.8,2.4-2.4c1-0.6,2.1-0.9,3.4-0.9s2.4,0.3,3.4,0.9c1,0.6,1.8,1.4,2.4,2.4c0.6,1,0.9,2.2,0.9,3.4l-0.7,0.6
			c0,1.2-0.3,2.2-0.8,3.1c-0.5,0.9-1.3,1.7-2.2,2.2C308.2,81.1,307.2,81.4,306,81.4z M306.2,79.7c0.9,0,1.8-0.2,2.5-0.6
			c0.7-0.4,1.3-1,1.7-1.8c0.4-0.8,0.6-1.6,0.6-2.6c0-1-0.2-1.8-0.6-2.6c-0.4-0.8-1-1.4-1.7-1.8c-0.7-0.4-1.6-0.7-2.5-0.7
			c-0.9,0-1.7,0.2-2.5,0.7c-0.7,0.4-1.3,1-1.8,1.8c-0.4,0.8-0.6,1.6-0.6,2.6c0,0.9,0.2,1.8,0.6,2.6c0.4,0.8,1,1.4,1.8,1.8
			C304.4,79.5,305.3,79.7,306.2,79.7z M311.9,81.3c-0.3,0-0.5-0.1-0.7-0.3c-0.2-0.2-0.3-0.4-0.3-0.7v-4.1l0.5-1.9l1.4,0.4v5.7
			c0,0.3-0.1,0.5-0.3,0.7C312.4,81.2,312.2,81.3,311.9,81.3z" />
            <path class="st2" d="M315.6,70.2c-0.2,0-0.4-0.1-0.6-0.2c-0.2-0.2-0.2-0.3-0.2-0.6c0-0.2,0.1-0.4,0.2-0.6c0.2-0.2,0.4-0.2,0.6-0.2
			h6.1c0.2,0,0.4,0.1,0.6,0.2c0.2,0.2,0.2,0.3,0.2,0.6c0,0.2-0.1,0.4-0.2,0.6c-0.2,0.2-0.4,0.2-0.6,0.2H315.6z M321.6,81.3
			c-0.8,0-1.6-0.2-2.3-0.6c-0.7-0.4-1.2-1-1.6-1.6c-0.4-0.7-0.6-1.5-0.6-2.4V64.9c0-0.3,0.1-0.5,0.3-0.7c0.2-0.2,0.4-0.3,0.7-0.3
			c0.3,0,0.5,0.1,0.7,0.3c0.2,0.2,0.3,0.4,0.3,0.7v11.8c0,0.8,0.2,1.5,0.7,2s1.1,0.8,1.9,0.8h0.7c0.3,0,0.5,0.1,0.6,0.3
			c0.2,0.2,0.2,0.4,0.2,0.7c0,0.3-0.1,0.5-0.3,0.7c-0.2,0.2-0.4,0.3-0.7,0.3H321.6z" />
            <path class="st2" d="M339.2,81.5c-1,0-2-0.1-2.9-0.4c-0.9-0.3-1.6-0.7-2.3-1.3c-0.6-0.5-1.1-1.2-1.5-1.9c-0.1-0.3-0.1-0.5,0-0.7
			c0.1-0.2,0.3-0.4,0.6-0.4c0.2-0.1,0.4,0,0.7,0.1c0.2,0.1,0.4,0.3,0.5,0.5c0.2,0.5,0.6,0.9,1.1,1.3s1,0.7,1.7,0.9
			c0.6,0.2,1.3,0.3,2.1,0.3c0.8,0,1.6-0.1,2.3-0.4c0.7-0.3,1.2-0.7,1.6-1.2c0.4-0.5,0.6-1.2,0.6-2c0-1-0.4-1.8-1.1-2.5
			c-0.7-0.7-1.9-1.2-3.4-1.3c-1.9-0.2-3.3-0.8-4.4-1.7c-1.1-0.9-1.6-2.1-1.6-3.5c0-1,0.3-1.8,0.8-2.6c0.5-0.7,1.2-1.3,2.2-1.7
			c0.9-0.4,2-0.6,3.2-0.6c0.9,0,1.7,0.1,2.4,0.4s1.4,0.6,1.9,1.1c0.5,0.5,1,1,1.3,1.5c0.2,0.3,0.2,0.5,0.2,0.7
			c-0.1,0.2-0.2,0.4-0.4,0.6c-0.2,0.1-0.5,0.1-0.7,0c-0.2-0.1-0.4-0.2-0.6-0.5c-0.2-0.4-0.5-0.7-0.9-1c-0.4-0.3-0.8-0.6-1.3-0.8
			c-0.5-0.2-1.1-0.3-1.9-0.3c-1.3,0-2.3,0.3-3.1,0.8c-0.8,0.5-1.2,1.3-1.2,2.3c0,0.5,0.1,1,0.4,1.5c0.3,0.5,0.8,0.9,1.4,1.2
			c0.7,0.3,1.6,0.6,2.7,0.7c2,0.3,3.5,0.9,4.5,1.8c1,0.9,1.5,2.2,1.5,3.7c0,0.9-0.2,1.6-0.5,2.3c-0.3,0.7-0.8,1.2-1.3,1.7
			c-0.6,0.5-1.2,0.8-2,1C340.9,81.4,340.1,81.5,339.2,81.5z" />
            <path class="st2" d="M354.9,81.4c-1.2,0-2.3-0.3-3.3-0.9c-1-0.6-1.8-1.4-2.3-2.4c-0.6-1-0.9-2.1-0.9-3.4c0-1.3,0.3-2.4,0.9-3.4
			c0.6-1,1.4-1.8,2.4-2.4c1-0.6,2.1-0.9,3.4-0.9s2.4,0.3,3.4,0.9c1,0.6,1.8,1.4,2.4,2.4c0.6,1,0.9,2.2,0.9,3.4l-0.7,0.6
			c0,1.2-0.3,2.2-0.8,3.1c-0.5,0.9-1.3,1.7-2.2,2.2C357.1,81.1,356.1,81.4,354.9,81.4z M355.1,79.7c0.9,0,1.8-0.2,2.5-0.6
			c0.7-0.4,1.3-1,1.7-1.8c0.4-0.8,0.6-1.6,0.6-2.6c0-1-0.2-1.8-0.6-2.6c-0.4-0.8-1-1.4-1.7-1.8c-0.7-0.4-1.6-0.7-2.5-0.7
			c-0.9,0-1.7,0.2-2.5,0.7c-0.7,0.4-1.3,1-1.8,1.8c-0.4,0.8-0.6,1.6-0.6,2.6c0,0.9,0.2,1.8,0.6,2.6c0.4,0.8,1,1.4,1.8,1.8
			C353.4,79.5,354.2,79.7,355.1,79.7z M360.9,81.3c-0.3,0-0.5-0.1-0.7-0.3c-0.2-0.2-0.3-0.4-0.3-0.7v-4.1l0.5-1.9l1.4,0.4v5.7
			c0,0.3-0.1,0.5-0.3,0.7C361.4,81.2,361.1,81.3,360.9,81.3z" />
            <path class="st2" d="M368.2,81.3c-0.6,0-1.2-0.2-1.7-0.5c-0.5-0.4-0.9-0.8-1.2-1.5c-0.3-0.6-0.4-1.3-0.4-2.2V63.4
			c0-0.3,0.1-0.5,0.3-0.7c0.2-0.2,0.4-0.3,0.7-0.3c0.3,0,0.5,0.1,0.7,0.3c0.2,0.2,0.3,0.4,0.3,0.7v13.7c0,0.7,0.1,1.3,0.4,1.7
			c0.3,0.4,0.6,0.6,1.1,0.6h0.6c0.2,0,0.4,0.1,0.6,0.3c0.1,0.2,0.2,0.4,0.2,0.7c0,0.3-0.1,0.5-0.3,0.7c-0.2,0.2-0.5,0.3-0.8,0.3
			H368.2z" />
            <path class="st2"
                d="M377.4,81.4c-1.3,0-2.4-0.3-3.5-0.9c-1-0.6-1.8-1.4-2.4-2.4c-0.6-1-0.9-2.2-0.9-3.5c0-1.3,0.3-2.5,0.8-3.5
			c0.5-1,1.3-1.8,2.2-2.4c0.9-0.6,2-0.9,3.3-0.9c1.2,0,2.3,0.3,3.2,0.8c0.9,0.6,1.6,1.3,2.1,2.3s0.7,2.1,0.7,3.3
			c0,0.3-0.1,0.5-0.2,0.6c-0.2,0.2-0.4,0.2-0.6,0.2H372v-1.5h10.4l-1,0.7c0-0.9-0.2-1.8-0.5-2.5c-0.4-0.7-0.9-1.3-1.5-1.7
			s-1.4-0.6-2.3-0.6c-0.9,0-1.7,0.2-2.4,0.6c-0.7,0.4-1.2,1-1.6,1.8c-0.4,0.8-0.6,1.6-0.6,2.6c0,1,0.2,1.8,0.6,2.6
			c0.4,0.8,1,1.3,1.7,1.8c0.7,0.4,1.6,0.6,2.6,0.6c0.6,0,1.2-0.1,1.7-0.3c0.6-0.2,1.1-0.5,1.4-0.8c0.2-0.1,0.4-0.2,0.6-0.2
			c0.2,0,0.4,0.1,0.6,0.2c0.2,0.2,0.3,0.4,0.3,0.6c0,0.2-0.1,0.4-0.3,0.6c-0.5,0.4-1.2,0.8-2,1.1C379,81.2,378.2,81.4,377.4,81.4z" />
            <path class="st2"
                d="M392.3,64.2c-0.3,0-0.5-0.1-0.6-0.2c-0.2-0.2-0.2-0.4-0.2-0.6c0-0.3,0.1-0.5,0.2-0.6c0.2-0.2,0.4-0.2,0.6-0.2
			h13.3c0.3,0,0.5,0.1,0.6,0.2c0.2,0.2,0.2,0.4,0.2,0.6c0,0.2-0.1,0.4-0.2,0.6c-0.2,0.2-0.4,0.2-0.6,0.2H392.3z M399,81.3
			c-0.3,0-0.5-0.1-0.7-0.3c-0.2-0.2-0.3-0.4-0.3-0.7V62.5h1.9v17.9c0,0.3-0.1,0.5-0.3,0.7C399.5,81.2,399.3,81.3,399,81.3z" />
            <path class="st2" d="M411.4,81.4c-1.3,0-2.4-0.3-3.5-0.9c-1-0.6-1.8-1.4-2.4-2.4c-0.6-1-0.9-2.2-0.9-3.5c0-1.3,0.3-2.5,0.8-3.5
			c0.5-1,1.3-1.8,2.2-2.4c0.9-0.6,2-0.9,3.3-0.9c1.2,0,2.3,0.3,3.2,0.8c0.9,0.6,1.6,1.3,2.1,2.3s0.7,2.1,0.7,3.3
			c0,0.3-0.1,0.5-0.2,0.6c-0.2,0.2-0.4,0.2-0.6,0.2H406v-1.5h10.4l-1,0.7c0-0.9-0.2-1.8-0.5-2.5c-0.4-0.7-0.9-1.3-1.5-1.7
			s-1.4-0.6-2.3-0.6c-0.9,0-1.7,0.2-2.4,0.6c-0.7,0.4-1.2,1-1.6,1.8c-0.4,0.8-0.6,1.6-0.6,2.6c0,1,0.2,1.8,0.6,2.6
			c0.4,0.8,1,1.3,1.7,1.8c0.7,0.4,1.6,0.6,2.6,0.6c0.6,0,1.2-0.1,1.7-0.3c0.6-0.2,1.1-0.5,1.4-0.8c0.2-0.1,0.4-0.2,0.6-0.2
			c0.2,0,0.4,0.1,0.6,0.2c0.2,0.2,0.3,0.4,0.3,0.6c0,0.2-0.1,0.4-0.3,0.6c-0.5,0.4-1.2,0.8-2,1.1C412.9,81.2,412.2,81.4,411.4,81.4z
			" />
            <path class="st2" d="M421.1,81.3c-0.3,0-0.5-0.1-0.7-0.3c-0.2-0.2-0.3-0.4-0.3-0.7V69c0-0.3,0.1-0.5,0.3-0.7
			c0.2-0.2,0.4-0.3,0.7-0.3c0.3,0,0.5,0.1,0.7,0.3c0.2,0.2,0.3,0.4,0.3,0.7v11.3c0,0.3-0.1,0.5-0.3,0.7
			C421.6,81.2,421.4,81.3,421.1,81.3z M429.6,81.3c-0.3,0-0.5-0.1-0.7-0.3c-0.2-0.2-0.3-0.4-0.3-0.7v-6.9c0-1.1-0.3-2-0.9-2.7
			c-0.6-0.7-1.4-1-2.3-1c-1,0-1.8,0.3-2.5,1c-0.6,0.6-1,1.5-1,2.5h-1.3c0-1,0.3-1.9,0.7-2.7c0.4-0.8,1-1.4,1.7-1.9
			c0.7-0.4,1.6-0.7,2.5-0.7c0.9,0,1.8,0.2,2.5,0.7c0.7,0.4,1.3,1.1,1.7,1.9c0.4,0.8,0.6,1.8,0.6,2.9v6.9c0,0.3-0.1,0.5-0.3,0.7
			C430.1,81.2,429.9,81.3,429.6,81.3z M438,81.3c-0.3,0-0.5-0.1-0.7-0.3c-0.2-0.2-0.3-0.4-0.3-0.7v-6.9c0-1.1-0.3-2-0.9-2.7
			c-0.6-0.7-1.4-1-2.3-1c-1,0-1.8,0.3-2.4,1c-0.6,0.7-0.9,1.6-0.9,2.7h-1.7c0-1.1,0.2-2,0.7-2.8c0.4-0.8,1.1-1.5,1.9-1.9
			c0.8-0.4,1.7-0.7,2.7-0.7c0.9,0,1.8,0.2,2.5,0.7c0.7,0.4,1.3,1.1,1.7,1.9c0.4,0.8,0.6,1.8,0.6,2.9v6.9c0,0.3-0.1,0.5-0.3,0.7
			C438.5,81.2,438.3,81.3,438,81.3z" />
            <path class="st2" d="M448.8,81.4c-1.2,0-2.3-0.3-3.3-0.9c-1-0.6-1.8-1.4-2.3-2.4c-0.6-1-0.9-2.1-0.9-3.4c0-1.3,0.3-2.4,0.9-3.4
			c0.6-1,1.4-1.8,2.4-2.4c1-0.6,2.1-0.9,3.4-0.9s2.4,0.3,3.4,0.9c1,0.6,1.8,1.4,2.4,2.4c0.6,1,0.9,2.2,0.9,3.4l-0.7,0.6
			c0,1.2-0.3,2.2-0.8,3.1c-0.5,0.9-1.3,1.7-2.2,2.2C451,81.1,450,81.4,448.8,81.4z M449,79.7c0.9,0,1.8-0.2,2.5-0.6
			c0.7-0.4,1.3-1,1.7-1.8c0.4-0.8,0.6-1.6,0.6-2.6c0-1-0.2-1.8-0.6-2.6c-0.4-0.8-1-1.4-1.7-1.8c-0.7-0.4-1.6-0.7-2.5-0.7
			c-0.9,0-1.7,0.2-2.5,0.7c-0.7,0.4-1.3,1-1.8,1.8c-0.4,0.8-0.6,1.6-0.6,2.6c0,0.9,0.2,1.8,0.6,2.6c0.4,0.8,1,1.4,1.8,1.8
			C447.2,79.5,448.1,79.7,449,79.7z M454.7,81.3c-0.3,0-0.5-0.1-0.7-0.3c-0.2-0.2-0.3-0.4-0.3-0.7v-4.1l0.5-1.9l1.4,0.4v5.7
			c0,0.3-0.1,0.5-0.3,0.7C455.2,81.2,455,81.3,454.7,81.3z" />
            <path class="st2" d="M460.2,81.3c-0.3,0-0.5-0.1-0.7-0.2c-0.2-0.2-0.2-0.4-0.2-0.7V69c0-0.3,0.1-0.5,0.2-0.7
			c0.2-0.2,0.4-0.2,0.7-0.2s0.5,0.1,0.7,0.2c0.2,0.2,0.2,0.4,0.2,0.7v11.3c0,0.3-0.1,0.5-0.2,0.7C460.7,81.2,460.5,81.3,460.2,81.3z
			 M460,73.2c0-1,0.3-1.9,0.8-2.7c0.5-0.8,1.1-1.4,1.9-1.9c0.8-0.4,1.6-0.7,2.5-0.7c0.7,0,1.3,0.1,1.7,0.3c0.4,0.2,0.6,0.5,0.5,0.9
			c-0.1,0.2-0.2,0.4-0.3,0.5c-0.2,0.1-0.3,0.1-0.6,0.1c-0.2,0-0.5,0-0.7,0c-0.9-0.1-1.7,0-2.4,0.3c-0.7,0.3-1.3,0.7-1.7,1.2
			c-0.4,0.5-0.6,1.2-0.6,1.9H460z" />
            <path class="st2" d="M475.1,81.4c-1.2,0-2.3-0.3-3.3-0.9c-1-0.6-1.8-1.4-2.3-2.4c-0.6-1-0.9-2.1-0.9-3.4c0-1.3,0.3-2.4,0.9-3.4
			c0.6-1,1.4-1.8,2.4-2.4c1-0.6,2.1-0.9,3.4-0.9c1.3,0,2.4,0.3,3.4,0.9c1,0.6,1.8,1.4,2.4,2.4c0.6,1,0.9,2.2,0.9,3.4l-0.7,0.6
			c0,1.2-0.3,2.2-0.8,3.1s-1.3,1.7-2.2,2.2C477.3,81.1,476.3,81.4,475.1,81.4z M475.3,79.7c0.9,0,1.8-0.2,2.5-0.6
			c0.7-0.4,1.3-1,1.7-1.8c0.4-0.8,0.6-1.6,0.6-2.6c0-1-0.2-1.8-0.6-2.6c-0.4-0.8-1-1.4-1.7-1.8c-0.7-0.4-1.6-0.7-2.5-0.7
			c-0.9,0-1.7,0.2-2.5,0.7c-0.7,0.4-1.3,1-1.8,1.8c-0.4,0.8-0.6,1.6-0.6,2.6c0,0.9,0.2,1.8,0.6,2.6c0.4,0.8,1,1.4,1.8,1.8
			C473.6,79.5,474.4,79.7,475.3,79.7z M481.1,81.3c-0.3,0-0.5-0.1-0.7-0.3c-0.2-0.2-0.3-0.4-0.3-0.7v-4.1l0.5-1.9l1.4,0.4v5.7
			c0,0.3-0.1,0.5-0.3,0.7C481.6,81.2,481.3,81.3,481.1,81.3z" />
        </g>
    </g>
</svg>