<svg version="1.1" xmlns="http://www.w3.org/2000/svg" xmlns:xlink="http://www.w3.org/1999/xlink" x="0px" y="0px"
    width="500px" height="103.2px" viewBox="0 0 700 103.2" xml:space="preserve">
    <style type="text/css">
        .st0,
        .st1 {
            fill: none;
            stroke: #F19C1A;
            stroke-width: 5;
            stroke-miterlimit: 10;
            stroke-dasharray: 380;
            stroke-dashoffset: 0;
            stroke-linejoin: round;
            stroke-linecap: round;
            animation: anime 2s infinite cubic-bezier(0.175, 0.885, 0.32, 1.275);
        }

        .st2 {
            fill: #15213C;
        }

        .item {
            transform: ;
            animation: move 5s infinite cubic-bezier(0.175, 0.885, 0.32, 1.275);
        }




        @keyframes anime {
            0% {
                stroke-dashoffset: 380;

            }



            50%,
            100% {
                stroke-dashoffset: 0;
                opacity: 1;
            }
        }

        @keyframes move {

            0%,
            30% {
                transform: translateY(0);

            }



            33%,
            63% {
                transform: translateY(-125px);
            }

            66%,
            96% {
                transform: translateY(-250px);

            }

            97% {
                transform: translateY(-125px);
            }

            100% {
                transform: translateY(0px);
            }
        }
    </style>
    <defs>
    </defs>
    <path class="st0" d="M33.1,88.3c-4.6,0-8.8-0.7-12.8-2c-4-1.3-7.4-3.3-10.4-5.8C7,78,4.7,75,3.2,71.6c-0.9-1.8-0.9-3.8,0-5.5
	c0.6-1.1,1.8-2.5,4.3-3.2c0.6-0.2,1.2-0.2,1.8-0.2c1,0,2.1,0.3,3,0.8c1.4,0.7,2.5,1.9,3.3,3.3c0.8,1.5,2,3,3.6,4.2
	c1.6,1.3,3.7,2.3,6,3.1c2.4,0.7,5.1,1.1,8,1.1c3.1,0,5.9-0.5,8.3-1.5c2.3-1,4-2.3,5.2-4.1c1.2-1.8,1.8-3.9,1.8-6.5
	c0-3.3-1.2-6.1-3.6-8.5c-2.5-2.5-6.7-4.1-12.5-4.8c-8.3-1-15-3.7-19.8-7.9c-5-4.4-7.6-10-7.6-16.5c0-4.7,1.3-8.8,3.8-12.3
	c2.5-3.4,5.9-6.1,10.1-7.9c4.1-1.8,8.9-2.7,14.2-2.7c4,0,7.7,0.7,11,1.9c3.3,1.3,6.2,3,8.7,5.1c2.4,2.1,4.5,4.4,6,6.9
	c1.3,2.1,1.3,4,1,5.2c-0.4,1.8-1.5,3.2-3.1,4.1l-0.1,0.1l-0.1,0c-1,0.4-2,0.7-3,0.7c-0.7,0-1.4-0.1-2.2-0.3c-1.7-0.5-3-1.6-3.9-3.1
	c-0.9-1.3-1.9-2.6-3.2-3.7c-1.2-1.1-2.8-2-4.5-2.7c-1.8-0.7-4.1-1.1-6.8-1.1c-4.6,0-8.3,1-11,2.8c-2.4,1.7-3.6,4.1-3.6,7.4
	c0,1.7,0.4,3.3,1.4,4.7c0.9,1.4,2.5,2.7,4.8,3.9c2.5,1.2,6,2.2,10.3,2.8c8.9,1.3,15.7,4.1,20.1,8.4c4.6,4.4,6.9,10.3,6.9,17.3
	c0,4-0.7,7.6-2.2,10.8c-1.5,3.2-3.6,5.9-6.3,8.1c-2.6,2.1-5.7,3.7-9.2,4.8C40.7,87.7,37,88.3,33.1,88.3z" />
    <path class="st0" d="M191.4,88.3c-4.6,0-8.8-0.7-12.8-2c-4-1.3-7.4-3.3-10.4-5.8c-3-2.5-5.3-5.5-6.8-8.9c-0.9-1.8-0.9-3.8,0-5.5
	c0.6-1.1,1.8-2.5,4.3-3.2c0.6-0.2,1.2-0.2,1.8-0.2c1,0,2.1,0.3,3,0.8c1.4,0.7,2.5,1.9,3.3,3.3c0.8,1.5,2,3,3.6,4.2
	c1.6,1.3,3.7,2.3,6,3.1c2.4,0.7,5.1,1.1,8,1.1c3.1,0,5.9-0.5,8.3-1.5c2.3-1,4-2.3,5.2-4.1c1.2-1.8,1.8-3.9,1.8-6.5
	c0-3.3-1.2-6.1-3.6-8.5c-2.5-2.5-6.7-4.1-12.5-4.8c-8.3-1-15-3.7-19.8-7.9c-5-4.4-7.6-10-7.6-16.5c0-4.7,1.3-8.8,3.8-12.3
	c2.5-3.4,5.9-6.1,10.1-7.9c4.1-1.8,8.9-2.7,14.2-2.7c4,0,7.7,0.7,11,1.9c3.3,1.3,6.2,3,8.7,5.1c2.4,2.1,4.5,4.4,6,6.9
	c1.3,2.1,1.3,4,1,5.2c-0.4,1.8-1.5,3.2-3.1,4.1l-0.1,0.1l-0.1,0c-1,0.4-2,0.7-3,0.7c-0.7,0-1.4-0.1-2.2-0.3c-1.7-0.5-3-1.6-3.9-3.1
	c-0.9-1.3-2-2.6-3.2-3.7c-1.2-1.1-2.8-2-4.5-2.7c-1.8-0.7-4.1-1.1-6.8-1.1c-4.6,0-8.3,1-11,2.8c-2.4,1.7-3.6,4.1-3.6,7.4
	c0,1.7,0.4,3.3,1.4,4.7c0.9,1.4,2.5,2.7,4.8,3.9c2.5,1.2,6,2.2,10.3,2.8c8.9,1.3,15.7,4.1,20.1,8.4c4.6,4.4,6.9,10.3,6.9,17.3
	c0,4-0.7,7.6-2.2,10.8c-1.5,3.2-3.6,5.9-6.3,8.1c-2.6,2.1-5.7,3.7-9.2,4.8C199,87.7,195.3,88.3,191.4,88.3z" />
    <path class="st0" d="M151.4,47.7c0,22.4-18.1,40.5-40.5,40.5c-2.1,0-4.1-0.1-6.1-0.4L92.3,99.5c-2.8,2.6-7.3,0.6-7.3-3.1V79
	c-9-7.4-14.7-18.7-14.7-31.3c0-22.4,18.1-40.5,40.5-40.5C133.2,7.2,151.4,25.3,151.4,47.7z" />
    <circle class="st1" cx="93.2" cy="46.8" r="2.5" />
    <circle class="st1" cx="109.1" cy="46.8" r="2.5" />
    <circle class="st1" cx="125.1" cy="46.8" r="2.5" />


    <g>
        <g class="item">
            <path class="st2" d="M250,276.5c-1,0-1.9-0.3-2.5-1c-0.7-0.6-1-1.4-1-2.4c0-1,0.3-1.9,1-2.5c0.6-0.6,1.5-1,2.5-1h53.9
			c1,0,1.9,0.3,2.5,1c0.6,0.6,1,1.5,1,2.5c0,1-0.3,1.8-1,2.4c-0.7,0.6-1.5,1-2.5,1H250z M276.9,344.7c-1,0-1.9-0.4-2.7-1.1
			c-0.7-0.7-1.1-1.6-1.1-2.6v-71.3h7.6v71.3c0,1-0.4,1.9-1.1,2.6C278.9,344.3,278,344.7,276.9,344.7z" />
            <path class="st2" d="M327.2,345.2c-5.3,0-9.9-1.1-14-3.4c-4.1-2.3-7.2-5.4-9.6-9.5c-2.3-4-3.5-8.6-3.5-13.8
			c0-5.2,1.1-9.9,3.3-13.9c2.2-4,5.2-7.2,9-9.5c3.8-2.3,8.2-3.5,13.3-3.5c4.9,0,9.2,1.1,12.9,3.3c3.7,2.2,6.5,5.3,8.5,9.2
			c2,3.9,3,8.4,3,13.3c0,1-0.3,1.8-1,2.4c-0.6,0.6-1.5,0.9-2.5,0.9h-41.4v-6.1h42.2l-4.2,3c0.1-3.7-0.6-7-2-10
			c-1.4-2.9-3.5-5.2-6.1-6.9c-2.6-1.7-5.8-2.5-9.4-2.5c-3.7,0-7,0.9-9.7,2.6c-2.8,1.7-5,4.1-6.5,7.2c-1.5,3-2.3,6.5-2.3,10.4
			c0,3.9,0.9,7.4,2.6,10.4c1.7,3,4.1,5.4,7.1,7.1c3,1.7,6.4,2.6,10.3,2.6c2.3,0,4.7-0.4,7.1-1.2c2.4-0.8,4.3-1.8,5.7-3
			c0.7-0.6,1.5-0.9,2.4-0.9c0.9,0,1.7,0.2,2.3,0.7c0.8,0.8,1.3,1.6,1.3,2.5c0,0.9-0.3,1.7-1.1,2.3c-2.1,1.8-4.9,3.3-8.2,4.5
			C333.4,344.6,330.2,345.2,327.2,345.2z" />
            <path class="st2" d="M366.7,344.7c-1.2,0-2.1-0.3-2.8-1c-0.7-0.7-1-1.6-1-2.6v-45.1c0-1.1,0.3-2,1-2.7c0.7-0.7,1.6-1.1,2.8-1.1
			c1.1,0,2,0.4,2.7,1.1c0.7,0.7,1,1.6,1,2.7V341c0,1.1-0.3,2-1,2.6C368.7,344.3,367.8,344.7,366.7,344.7z M400.9,344.7
			c-1.1,0-2-0.3-2.7-1c-0.7-0.7-1.1-1.6-1.1-2.6v-27.7c0-4.5-1.2-8.1-3.6-10.8c-2.4-2.7-5.5-4-9.3-4c-4,0-7.3,1.3-9.9,3.9
			c-2.6,2.6-3.9,6-3.9,10.1H365c0.1-4.1,1.1-7.7,2.8-10.9c1.7-3.2,4.1-5.7,7.1-7.4c3-1.8,6.4-2.7,10.1-2.7c3.8,0,7.2,0.9,10.2,2.7
			c3,1.8,5.3,4.3,6.9,7.6c1.7,3.3,2.5,7.1,2.5,11.5V341c0,1.1-0.3,2-1,2.6C402.9,344.3,402,344.7,400.9,344.7z M434.9,344.7
			c-1.1,0-2-0.3-2.7-1c-0.7-0.7-1.1-1.6-1.1-2.6v-27.7c0-4.5-1.2-8.1-3.6-10.8c-2.4-2.7-5.5-4-9.3-4c-4,0-7.3,1.3-9.9,4
			c-2.6,2.7-3.8,6.2-3.7,10.6h-6.7c0.1-4.3,1-8.1,2.8-11.3c1.8-3.3,4.3-5.8,7.5-7.6c3.2-1.8,6.8-2.7,10.8-2.7
			c3.8,0,7.2,0.9,10.2,2.7c3,1.8,5.3,4.3,6.9,7.6c1.7,3.3,2.5,7.1,2.5,11.5V341c0,1.1-0.3,2-1,2.6
			C436.9,344.3,436,344.7,434.9,344.7z" />
            <path class="st2" d="M478.6,345.2c-5,0-9.5-1.2-13.4-3.5c-4-2.3-7.1-5.5-9.4-9.6c-2.3-4-3.5-8.6-3.5-13.6c0-5.1,1.2-9.7,3.6-13.7
			c2.4-4,5.6-7.2,9.7-9.6c4.1-2.3,8.7-3.5,13.8-3.5s9.7,1.2,13.8,3.5c4.1,2.3,7.3,5.5,9.6,9.6c2.4,4,3.6,8.6,3.7,13.7l-3,2.3
			c0,4.6-1.1,8.8-3.3,12.4c-2.2,3.7-5.1,6.6-8.9,8.7C487.6,344.1,483.4,345.2,478.6,345.2z M479.4,338.4c3.8,0,7.1-0.9,10.1-2.6
			c3-1.7,5.3-4.1,7-7.2c1.7-3,2.6-6.4,2.6-10.2c0-3.8-0.9-7.3-2.6-10.3c-1.7-3-4.1-5.4-7-7.2c-3-1.8-6.3-2.6-10.1-2.6
			c-3.7,0-7,0.9-10,2.6c-3,1.8-5.4,4.1-7.1,7.2c-1.8,3-2.6,6.4-2.6,10.3c0,3.8,0.9,7.2,2.6,10.2c1.8,3,4.1,5.4,7.1,7.2
			C472.4,337.6,475.7,338.4,479.4,338.4z M502.7,344.7c-1.1,0-2-0.3-2.7-1c-0.7-0.7-1.1-1.6-1.1-2.6v-16.4l1.9-7.6l5.7,1.4V341
			c0,1.1-0.4,2-1.1,2.6C504.7,344.3,503.8,344.7,502.7,344.7z" />
            <path class="st2" d="M524.8,344.7c-1.2,0-2.1-0.3-2.7-1c-0.7-0.6-1-1.5-1-2.7v-45.2c0-1.2,0.3-2,1-2.7c0.6-0.6,1.6-1,2.7-1
			c1.2,0,2.1,0.3,2.7,1c0.6,0.6,1,1.5,1,2.7V341c0,1.2-0.3,2.1-1,2.7C526.9,344.4,526,344.7,524.8,344.7z M524.2,312.3
			c0.2-4,1.3-7.5,3.2-10.7c1.9-3.1,4.4-5.6,7.5-7.4c3.1-1.8,6.5-2.7,10.3-2.7c3,0,5.3,0.4,6.9,1.2c1.6,0.8,2.2,2.1,1.8,3.7
			c-0.3,1-0.7,1.6-1.3,1.9c-0.6,0.3-1.4,0.4-2.2,0.4c-0.9-0.1-1.9-0.1-3-0.2c-3.6-0.3-6.9,0-9.7,1.1c-2.8,1.1-5.1,2.7-6.7,4.8
			c-1.7,2.2-2.5,4.8-2.5,7.8H524.2z" />
            <path class="st2" d="M585.3,345.2c-5,0-9.5-1.2-13.4-3.5c-4-2.3-7.1-5.5-9.4-9.6c-2.3-4-3.5-8.6-3.5-13.6c0-5.1,1.2-9.7,3.6-13.7
			c2.4-4,5.6-7.2,9.7-9.6c4.1-2.3,8.7-3.5,13.8-3.5c5.1,0,9.7,1.2,13.8,3.5c4.1,2.3,7.3,5.5,9.6,9.6c2.4,4,3.6,8.6,3.7,13.7l-3,2.3
			c0,4.6-1.1,8.8-3.3,12.4c-2.2,3.7-5.1,6.6-8.9,8.7C594.3,344.1,590.1,345.2,585.3,345.2z M586.1,338.4c3.8,0,7.1-0.9,10.1-2.6
			c3-1.7,5.3-4.1,7-7.2c1.7-3,2.6-6.4,2.6-10.2c0-3.8-0.9-7.3-2.6-10.3c-1.7-3-4.1-5.4-7-7.2c-3-1.8-6.3-2.6-10.1-2.6
			c-3.7,0-7,0.9-10,2.6c-3,1.8-5.4,4.1-7.1,7.2c-1.8,3-2.6,6.4-2.6,10.3c0,3.8,0.9,7.2,2.6,10.2c1.8,3,4.1,5.4,7.1,7.2
			C579.1,337.6,582.4,338.4,586.1,338.4z M609.4,344.7c-1.1,0-2-0.3-2.7-1c-0.7-0.7-1.1-1.6-1.1-2.6v-16.4l1.9-7.6l5.7,1.4V341
			c0,1.1-0.4,2-1.1,2.6C611.4,344.3,610.5,344.7,609.4,344.7z" />
        </g>

    </g>
    <g>
        <g class="item">
            <path class="st2" d="M250.3,81.6c-1.1,0-2-0.3-2.7-1c-0.7-0.7-1.1-1.6-1.1-2.7V11c0-1.1,0.4-2,1.1-2.7c0.7-0.7,1.6-1,2.7-1h18.1
			c4.7,0,8.9,1,12.6,2.9c3.7,1.9,6.5,4.6,8.6,8.1c2.1,3.5,3.1,7.4,3.1,11.9c0,4.3-1,8.2-3.1,11.5c-2.1,3.4-5,6-8.6,7.9
			c-3.7,1.9-7.9,2.9-12.6,2.9H254v25.4c0,1.1-0.4,2-1.1,2.7C252.3,81.3,251.4,81.6,250.3,81.6z M254,45.3h14.3c3.3,0,6.2-0.7,8.7-2
			c2.5-1.3,4.6-3.1,6-5.4c1.5-2.3,2.2-4.9,2.2-7.8c0-3.1-0.7-5.9-2.2-8.2c-1.5-2.4-3.5-4.2-6-5.6c-2.5-1.3-5.5-2-8.7-2H254V45.3z
			 M290.6,81.6c-0.8,0-1.5-0.2-2-0.5c-0.5-0.3-0.9-0.8-1.3-1.4l-18.5-29.1l7.5-1.9l17.3,27.2c1,1.5,1.1,2.9,0.5,4
			C293.6,81,292.4,81.6,290.6,81.6z" />
            <path class="st2" d="M328.5,82.1c-5,0-9.4-1.2-13.3-3.5c-3.9-2.3-7-5.5-9.3-9.5c-2.3-4-3.4-8.5-3.4-13.5c0-5.1,1.2-9.6,3.5-13.6
			c2.4-4,5.6-7.2,9.6-9.5c4.1-2.3,8.6-3.5,13.7-3.5s9.6,1.2,13.7,3.5c4,2.3,7.2,5.5,9.6,9.5c2.4,4,3.6,8.5,3.6,13.6l-3,2.3
			c0,4.6-1.1,8.7-3.2,12.3c-2.2,3.6-5.1,6.5-8.8,8.7C337.4,81,333.2,82.1,328.5,82.1z M329.3,75.4c3.7,0,7.1-0.9,10-2.6
			c2.9-1.7,5.2-4.1,7-7.1c1.7-3,2.6-6.4,2.6-10.1c0-3.8-0.9-7.2-2.6-10.2c-1.7-3-4-5.3-7-7.1c-2.9-1.7-6.3-2.6-10-2.6
			c-3.7,0-7,0.9-9.9,2.6c-3,1.7-5.3,4.1-7.1,7.1c-1.7,3-2.6,6.4-2.6,10.2c0,3.7,0.9,7.1,2.6,10.1c1.7,3,4.1,5.4,7.1,7.1
			C322.3,74.6,325.6,75.4,329.3,75.4z M352.4,81.6c-1.1,0-2-0.3-2.7-1c-0.7-0.7-1.1-1.5-1.1-2.6V61.7l1.8-7.5l5.7,1.4V78
			c0,1.1-0.4,2-1.1,2.6C354.3,81.3,353.4,81.6,352.4,81.6z" />
            <path class="st2" d="M397.4,82.1c-5,0-9.5-1.1-13.6-3.4c-4-2.3-7.2-5.4-9.6-9.4c-2.4-4-3.6-8.4-3.6-13.4V11c0-1.1,0.3-2,1-2.7
			c0.7-0.7,1.6-1,2.8-1c1.1,0,2,0.3,2.7,1c0.7,0.7,1,1.6,1,2.7v28c2.1-3,4.9-5.4,8.5-7.2c3.5-1.8,7.4-2.7,11.7-2.7
			c5,0,9.4,1.2,13.3,3.5c3.9,2.3,7,5.5,9.3,9.5c2.3,4,3.4,8.5,3.4,13.5c0,5.1-1.2,9.6-3.5,13.6c-2.4,4-5.6,7.2-9.6,9.5
			C407.1,80.9,402.5,82.1,397.4,82.1z M397.4,75.4c3.7,0,7.1-0.9,10-2.6c3-1.7,5.3-4.1,7-7.1c1.7-3,2.6-6.4,2.6-10.2
			c0-3.7-0.9-7.1-2.6-10.1c-1.7-3-4-5.4-7-7.1c-3-1.7-6.3-2.6-10-2.6c-3.7,0-7,0.9-9.9,2.6s-5.3,4.1-7,7.1c-1.7,3-2.5,6.4-2.5,10.1
			c0,3.8,0.8,7.2,2.5,10.2c1.7,3,4,5.3,7,7.1C390.4,74.6,393.7,75.4,397.4,75.4z" />
            <path class="st2" d="M462.2,82.1c-5,0-9.4-1.2-13.3-3.5c-3.9-2.3-7-5.5-9.3-9.5c-2.3-4-3.4-8.5-3.4-13.5c0-5.1,1.2-9.6,3.5-13.6
			c2.4-4,5.6-7.2,9.6-9.5c4.1-2.3,8.6-3.5,13.7-3.5s9.6,1.2,13.7,3.5c4,2.3,7.2,5.5,9.6,9.5c2.4,4,3.6,8.5,3.6,13.6l-3,2.3
			c0,4.6-1.1,8.7-3.2,12.3c-2.2,3.6-5.1,6.5-8.8,8.7C471.1,81,466.9,82.1,462.2,82.1z M462.9,75.4c3.7,0,7.1-0.9,10-2.6
			c2.9-1.7,5.2-4.1,7-7.1c1.7-3,2.6-6.4,2.6-10.1c0-3.8-0.9-7.2-2.6-10.2c-1.7-3-4-5.3-7-7.1c-2.9-1.7-6.3-2.6-10-2.6
			c-3.7,0-7,0.9-9.9,2.6c-3,1.7-5.3,4.1-7.1,7.1c-1.7,3-2.6,6.4-2.6,10.2c0,3.7,0.9,7.1,2.6,10.1c1.7,3,4.1,5.4,7.1,7.1
			C455.9,74.6,459.3,75.4,462.9,75.4z M486,81.6c-1.1,0-2-0.3-2.7-1c-0.7-0.7-1.1-1.5-1.1-2.6V61.7l1.8-7.5l5.7,1.4V78
			c0,1.1-0.4,2-1.1,2.6C488,81.3,487.1,81.6,486,81.6z" />
            <path class="st2" d="M500.9,37.8c-1,0-1.8-0.3-2.4-0.9c-0.6-0.6-1-1.3-1-2.2c0-1,0.3-1.7,1-2.3c0.6-0.6,1.4-0.9,2.4-0.9h24.6
			c1,0,1.8,0.3,2.4,0.9c0.6,0.6,1,1.4,1,2.3c0,0.9-0.3,1.6-1,2.2c-0.6,0.6-1.4,0.9-2.4,0.9H500.9z M524.9,81.6
			c-3.4,0-6.5-0.8-9.1-2.4c-2.7-1.6-4.8-3.8-6.3-6.5c-1.5-2.8-2.3-5.9-2.3-9.5V16.7c0-1.1,0.3-2,1-2.7c0.7-0.7,1.6-1,2.7-1
			c1.1,0,2,0.3,2.7,1c0.7,0.7,1.1,1.6,1.1,2.7v46.5c0,3.2,1,5.9,2.9,7.9c1.9,2.1,4.4,3.1,7.4,3.1h2.6c1,0,1.9,0.3,2.5,1
			c0.6,0.7,1,1.6,1,2.7c0,1.1-0.4,2-1.2,2.6c-0.8,0.7-1.7,1-2.9,1H524.9z" />
        </g>

    </g>
    <g>
        <g class="item">
            <path class="st2" d="M274.2,215.3c-4.2,0-8.2-0.6-11.8-1.8s-6.7-2.9-9.4-5.1c-2.7-2.2-4.7-4.8-6.1-7.7c-0.5-1-0.5-2-0.1-2.9
			c0.5-0.9,1.3-1.5,2.5-1.8c0.9-0.3,1.8-0.2,2.7,0.3c0.9,0.5,1.6,1.1,2,2.1c1,1.9,2.5,3.6,4.4,5.1c1.9,1.5,4.2,2.7,6.9,3.5
			c2.7,0.8,5.6,1.2,8.7,1.2c3.5,0,6.6-0.6,9.3-1.7c2.7-1.1,4.9-2.8,6.4-5c1.6-2.2,2.3-4.8,2.3-8c0-4-1.5-7.4-4.5-10.3
			c-3-2.9-7.7-4.7-14-5.5c-7.8-0.9-13.8-3.3-18.2-7.1c-4.4-3.8-6.6-8.5-6.6-14.1c0-4,1.1-7.4,3.2-10.4s5.1-5.2,8.9-6.8
			c3.8-1.6,8.1-2.4,13-2.4c3.6,0,7,0.6,9.9,1.7c3,1.1,5.6,2.6,7.8,4.5c2.2,1.9,4,3.9,5.4,6.1c0.7,1,0.9,2.1,0.6,3s-0.8,1.7-1.7,2.3
			c-1,0.5-2,0.5-3,0.2c-1-0.3-1.8-0.9-2.3-1.9c-1-1.5-2.2-2.9-3.7-4.3c-1.5-1.3-3.3-2.4-5.4-3.2c-2.1-0.8-4.7-1.2-7.7-1.3
			c-5.2,0-9.4,1.1-12.6,3.3c-3.2,2.2-4.8,5.4-4.8,9.6c0,2.2,0.6,4.3,1.8,6.1c1.2,1.9,3.2,3.5,5.9,4.8c2.7,1.3,6.4,2.3,11.1,3
			c8.3,1.2,14.4,3.7,18.4,7.5c4,3.8,6,8.8,6,14.9c0,3.5-0.6,6.7-1.9,9.4c-1.3,2.7-3.1,5-5.5,6.9s-5.1,3.3-8.3,4.3
			C281.1,214.8,277.7,215.3,274.2,215.3z" />
            <path class="st2" d="M339.1,214.8c-5.1,0-9.7-1.2-13.7-3.6c-4-2.4-7.2-5.6-9.6-9.7c-2.4-4.1-3.5-8.8-3.5-13.9
			c0-5.2,1.2-9.9,3.6-14c2.4-4.1,5.7-7.4,9.9-9.7c4.2-2.4,8.9-3.6,14.1-3.6s9.9,1.2,14.1,3.6c4.1,2.4,7.4,5.6,9.8,9.7
			c2.4,4.1,3.7,8.8,3.7,14l-3.1,2.4c0,4.7-1.1,8.9-3.3,12.7c-2.2,3.8-5.2,6.7-9,8.9C348.2,213.7,343.9,214.8,339.1,214.8z
			 M339.9,207.9c3.8,0,7.3-0.9,10.3-2.6c3-1.8,5.4-4.2,7.2-7.3c1.8-3.1,2.6-6.6,2.6-10.4c0-3.9-0.9-7.4-2.6-10.5
			c-1.8-3.1-4.1-5.5-7.2-7.3c-3-1.8-6.4-2.7-10.3-2.7c-3.8,0-7.2,0.9-10.2,2.7c-3.1,1.8-5.5,4.2-7.3,7.3c-1.8,3.1-2.7,6.6-2.7,10.5
			c0,3.9,0.9,7.3,2.7,10.4c1.8,3.1,4.2,5.5,7.3,7.3C332.7,207.1,336.1,207.9,339.9,207.9z M363.6,214.3c-1.1,0-2.1-0.3-2.8-1
			c-0.7-0.7-1.1-1.6-1.1-2.7v-16.8l1.9-7.7l5.9,1.5v23c0,1.1-0.4,2-1.1,2.7C365.7,214,364.7,214.3,363.6,214.3z" />
            <path class="st2" d="M394.1,214.3c-2.7,0-5-0.7-7.1-2.2c-2.1-1.4-3.7-3.4-4.9-6c-1.2-2.5-1.7-5.5-1.7-8.8v-55.8c0-1.1,0.3-2,1-2.7
			c0.7-0.7,1.6-1,2.7-1c1.1,0,2,0.3,2.7,1c0.7,0.7,1,1.6,1,2.7v55.8c0,2.8,0.6,5.1,1.7,6.9c1.2,1.8,2.6,2.6,4.4,2.6h2.5
			c1,0,1.8,0.3,2.4,1c0.6,0.7,0.9,1.6,0.9,2.7c0,1.1-0.4,2-1.2,2.7c-0.8,0.7-1.9,1-3.2,1H394.1z" />
            <path class="st2" d="M432.1,214.8c-5.4,0-10.1-1.2-14.3-3.5c-4.1-2.3-7.4-5.5-9.7-9.7c-2.4-4.1-3.5-8.8-3.5-14.1
			c0-5.4,1.1-10.1,3.3-14.2c2.2-4.1,5.3-7.3,9.2-9.7c3.9-2.4,8.4-3.5,13.5-3.5c5,0,9.4,1.1,13.2,3.4c3.7,2.3,6.6,5.4,8.7,9.4
			c2.1,4,3.1,8.5,3.1,13.6c0,1-0.3,1.9-1,2.5c-0.7,0.6-1.5,0.9-2.6,0.9h-42.2v-6.3h43l-4.3,3c0.1-3.8-0.6-7.2-2.1-10.2
			c-1.5-3-3.5-5.4-6.2-7.1c-2.7-1.7-5.9-2.5-9.6-2.5c-3.8,0-7.1,0.9-9.9,2.6c-2.9,1.8-5.1,4.2-6.6,7.3c-1.6,3.1-2.3,6.6-2.3,10.6
			c0,4,0.9,7.5,2.6,10.6c1.8,3.1,4.2,5.5,7.2,7.3c3,1.8,6.6,2.6,10.5,2.6c2.4,0,4.8-0.4,7.2-1.2c2.4-0.8,4.4-1.8,5.8-3.1
			c0.7-0.6,1.6-0.9,2.5-0.9c0.9,0,1.7,0.2,2.4,0.7c0.9,0.8,1.3,1.6,1.3,2.5c0,0.9-0.3,1.7-1.1,2.4c-2.2,1.8-5,3.3-8.3,4.6
			C438.5,214.2,435.2,214.8,432.1,214.8z" />
        </g>

    </g>
</svg>