<!-- Generator: Adobe Illustrator 23.0.2, SVG Export Plug-In  -->
<svg version="1.1" xmlns="http://www.w3.org/2000/svg" xmlns:xlink="http://www.w3.org/1999/xlink" x="0px" y="0px" width="483.3px"
	 height="103.2px" viewBox="0 0 483.3 103.2" style="enable-background:new 0 0 483.3 103.2;" xml:space="preserve">
<style type="text/css">
	
		.st0{fill:none;stroke:#F19C1A;stroke-width:5;stroke-linecap:round;stroke-linejoin:round;stroke-miterlimit:10;stroke-dasharray:380;}
	.st1{fill:#15213C;}
	.st2{fill:#F19C1A;stroke:#F19C1A;stroke-miterlimit:10;stroke-dasharray:380;}
</style>
<defs>
</defs>
<path class="st0" d="M293.9,88.3c-4.6,0-8.8-0.7-12.8-2s-7.4-3.3-10.4-5.8c-2.9-2.5-5.2-5.5-6.7-8.9c-0.9-1.8-0.9-3.8,0-5.5
	c0.6-1.1,1.8-2.5,4.3-3.2c0.6-0.2,1.2-0.2,1.8-0.2c1,0,2.1,0.3,3,0.8c1.4,0.7,2.5,1.9,3.3,3.3c0.8,1.5,2,3,3.6,4.2
	c1.6,1.3,3.7,2.3,6,3.1c2.4,0.7,5.1,1.1,8,1.1c3.1,0,5.9-0.5,8.3-1.5c2.3-1,4-2.3,5.2-4.1c1.2-1.8,1.8-3.9,1.8-6.5
	c0-3.3-1.2-6.1-3.6-8.5c-2.5-2.5-6.7-4.1-12.5-4.8c-8.3-1-15-3.7-19.8-7.9c-5-4.4-7.6-10-7.6-16.5c0-4.7,1.3-8.8,3.8-12.3
	c2.5-3.4,5.9-6.1,10.1-7.9c4.1-1.8,8.9-2.7,14.2-2.7c4,0,7.7,0.7,11,1.9c3.3,1.3,6.2,3,8.7,5.1c2.4,2.1,4.5,4.4,6,6.9
	c1.3,2.1,1.3,4,1,5.2c-0.4,1.8-1.5,3.2-3.1,4.1l-0.1,0.1h-0.1c-1,0.4-2,0.7-3,0.7c-0.7,0-1.4-0.1-2.2-0.3c-1.7-0.5-3-1.6-3.9-3.1
	c-0.9-1.3-1.9-2.6-3.2-3.7c-1.2-1.1-2.8-2-4.5-2.7c-1.8-0.7-4.1-1.1-6.8-1.1c-4.6,0-8.3,1-11,2.8c-2.4,1.7-3.6,4.1-3.6,7.4
	c0,1.7,0.4,3.3,1.4,4.7c0.9,1.4,2.5,2.7,4.8,3.9c2.5,1.2,6,2.2,10.3,2.8c8.9,1.3,15.7,4.1,20.1,8.4c4.6,4.4,6.9,10.3,6.9,17.3
	c0,4-0.7,7.6-2.2,10.8s-3.6,5.9-6.3,8.1c-2.6,2.1-5.7,3.7-9.2,4.8C301.5,87.7,297.8,88.3,293.9,88.3z"/>
<path class="st0" d="M452.2,88.3c-4.6,0-8.8-0.7-12.8-2S432,83,429,80.5s-5.3-5.5-6.8-8.9c-0.9-1.8-0.9-3.8,0-5.5
	c0.6-1.1,1.8-2.5,4.3-3.2c0.6-0.2,1.2-0.2,1.8-0.2c1,0,2.1,0.3,3,0.8c1.4,0.7,2.5,1.9,3.3,3.3c0.8,1.5,2,3,3.6,4.2
	c1.6,1.3,3.7,2.3,6,3.1c2.4,0.7,5.1,1.1,8,1.1c3.1,0,5.9-0.5,8.3-1.5c2.3-1,4-2.3,5.2-4.1c1.2-1.8,1.8-3.9,1.8-6.5
	c0-3.3-1.2-6.1-3.6-8.5c-2.5-2.5-6.7-4.1-12.5-4.8c-8.3-1-15-3.7-19.8-7.9c-5-4.4-7.6-10-7.6-16.5c0-4.7,1.3-8.8,3.8-12.3
	c2.5-3.4,5.9-6.1,10.1-7.9c4.1-1.8,8.9-2.7,14.2-2.7c4,0,7.7,0.7,11,1.9c3.3,1.3,6.2,3,8.7,5.1c2.4,2.1,4.5,4.4,6,6.9
	c1.3,2.1,1.3,4,1,5.2c-0.4,1.8-1.5,3.2-3.1,4.1l-0.1,0.1h-0.1c-1,0.4-2,0.7-3,0.7c-0.7,0-1.4-0.1-2.2-0.3c-1.7-0.5-3-1.6-3.9-3.1
	c-0.9-1.3-2-2.6-3.2-3.7c-1.2-1.1-2.8-2-4.5-2.7c-1.8-0.7-4.1-1.1-6.8-1.1c-4.6,0-8.3,1-11,2.8c-2.4,1.7-3.6,4.1-3.6,7.4
	c0,1.7,0.4,3.3,1.4,4.7c0.9,1.4,2.5,2.7,4.8,3.9c2.5,1.2,6,2.2,10.3,2.8c8.9,1.3,15.7,4.1,20.1,8.4c4.6,4.4,6.9,10.3,6.9,17.3
	c0,4-0.7,7.6-2.2,10.8s-3.6,5.9-6.3,8.1c-2.6,2.1-5.7,3.7-9.2,4.8C459.8,87.7,456.1,88.3,452.2,88.3z"/>
<path class="st0" d="M412.2,47.7c0,22.4-18.1,40.5-40.5,40.5c-2.1,0-4.1-0.1-6.1-0.4l-12.5,11.7c-2.8,2.6-7.3,0.6-7.3-3.1V79
	c-9-7.4-14.7-18.7-14.7-31.3c0-22.4,18.1-40.5,40.5-40.5C394,7.2,412.2,25.3,412.2,47.7z"/>
<circle class="st0" cx="354" cy="46.8" r="2.5"/>
<circle class="st0" cx="369.9" cy="46.8" r="2.5"/>
<circle class="st0" cx="385.9" cy="46.8" r="2.5"/>
<g>
	<g>
		<path class="st1" d="M11,50.3c-3.2,0-5.8-1-7.7-3c-1.9-2-2.9-4.7-2.9-8.2v-8.5l4.4-2.3v10.3c0,5.1,2.4,7.7,7.1,7.7h21.8
			c4.8,0,7.2-2.6,7.2-7.7V24.8l4.4-2.3v16.6c0,3.7-1.1,6.5-3.4,8.6c-2,1.7-4.5,2.6-7.7,2.6H11z M21.6,62.5c-1.8,0-2.7-0.9-2.7-2.7
			c0-1.7,0.9-2.6,2.7-2.6c1.7,0,2.5,0.9,2.5,2.6C24.1,61.6,23.3,62.5,21.6,62.5z"/>
		<path class="st1" d="M89.5,46.3h2.3v4H89c-2.7,0-4.9-0.7-6.7-2C81.9,55.6,79,60.1,73.6,62c-1.4,0.5-2.9,0.7-4.4,0.7
			c-2.5,0-4.9-0.6-7.3-1.8v-3.8c2.2,1.2,4.5,1.8,6.8,1.8c1.8,0,3.4-0.4,4.8-1.2c3-1.8,4.5-5.2,4.5-10.2V24.8l4.3-2.3v0.1l0.1-0.1
			v16.4C82.3,43.8,84.7,46.3,89.5,46.3z"/>
		<path class="st1" d="M90.5,50.3v-4h8.8v4H90.5z"/>
		<path class="st1" d="M98,50.3v-4h8.8v4H98z"/>
		<path class="st1" d="M152,50.3h-16.1c-2.3,0-4.7-0.5-7.2-1.5c-2.5,1-4.9,1.5-7.2,1.5h-16v-4h15.7c0.9,0,1.8-0.1,2.7-0.2
			c-3.4-2.5-7.2-6.5-11.2-12.2v-2.7c4.5-6.3,9.8-9.5,15.9-9.5c6.1,0,11.4,3.2,16,9.6v2.5c-4,5.7-7.7,9.8-11.1,12.2
			c0.9,0.1,1.7,0.2,2.6,0.2h15.7L152,50.3z M116.5,32.6c4.5,6.1,8.6,10,12.2,11.8c3.5-1.8,7.6-5.8,12.2-11.9
			c-3.5-4.6-7.5-6.8-12.2-6.8h-0.2C124.1,25.7,120.1,28,116.5,32.6z M128.7,13.9c-1.8,0-2.7-0.9-2.7-2.7c0-1.7,0.9-2.6,2.7-2.6
			c1.7,0,2.5,0.9,2.5,2.6C131.2,13,130.4,13.9,128.7,13.9z"/>
		<path class="st1" d="M191.5,46.3h2.2v4H191c-3.9,0-6.9-1.4-8.8-4.1c-2.2,3.6-5.5,5.4-9.9,5.4c-4.5,0-7.8-1.8-9.9-5.3
			c-2,2.7-5,4-8.9,4h-2.8v-4h2.3c4.8,0,7.2-2.5,7.2-7.4v-2.2c0-5,1.2-8.8,3.6-11.4c2.1-2.3,5-3.5,8.5-3.5c4.1,0,7.2,1.5,9.3,4.5
			c1.9,2.6,2.8,6.1,2.8,10.4v2.2C184.3,43.8,186.7,46.3,191.5,46.3z M172.2,47.6c2.4,0,4.3-1,5.7-3c1.4-2,2.1-4.6,2.1-8
			c0-7.3-2.6-10.9-7.7-10.9c-5.2,0-7.8,3.6-7.8,10.9C164.4,43.9,167,47.6,172.2,47.6z"/>
		<path class="st1" d="M192.5,50.3v-4h1.8c4.9,0,7.4-2.6,7.4-7.7v-28l4.4-2.3v30.3c0,3.7-1.1,6.6-3.3,8.7c-2,2-4.7,2.9-8.1,2.9
			H192.5z"/>
		<path class="st1" d="M234.6,50.3V10.7l4.4-2.3v41.9H234.6z"/>
	</g>
	<g>
		<path class="st1" d="M6.3,90.5c-2.1,0-3.7-0.7-4.9-2.1c-1-1.2-1.5-2.7-1.5-4.6c0-4.3,2.2-7.2,6.5-8.7c4.3,1.5,6.5,4.4,6.5,8.7
			c0,2.2-0.6,3.9-1.9,5.1C10,90,8.5,90.5,6.7,90.5H6.3z M6.2,88.4h0.6c1.2,0,2.2-0.4,2.9-1.2c0.7-0.8,1.1-1.9,1.1-3.3
			c0-3.1-1.4-5.3-4.2-6.6c-2.8,1.3-4.2,3.5-4.2,6.6c0,1.4,0.3,2.5,1,3.3C4.1,87.9,5,88.4,6.2,88.4z M4.3,70.7
			c-0.9,0-1.4-0.5-1.4-1.5c0-0.9,0.5-1.4,1.4-1.4c0.9,0,1.4,0.5,1.4,1.4C5.7,70.3,5.2,70.7,4.3,70.7z M8.3,70.7
			c-0.9,0-1.4-0.5-1.4-1.5c0-0.9,0.5-1.4,1.4-1.4c0.9,0,1.4,0.5,1.4,1.4C9.7,70.3,9.2,70.7,8.3,70.7z"/>
		<path class="st1" d="M23.1,88.8c0,4.2-1.6,6.9-4.7,8c-0.7,0.3-1.5,0.4-2.4,0.4c-1.4,0-2.7-0.3-3.9-1v-2.1c1.2,0.7,2.4,1,3.6,1
			c1,0,1.8-0.2,2.6-0.7c1.6-1,2.5-2.8,2.5-5.5V76.8l2.3-1.2V88.8z"/>
		<path class="st1" d="M35.4,90.5c-2,0-3.5-0.6-4.6-1.9c-0.9-1.1-1.3-2.5-1.3-4.2V69.2l2.3-1.2v16.4c0,2.7,1.3,4,3.8,4h1.2v2.2H35.4
			z"/>
		<path class="st1" d="M58.2,88.4h1.2v2.2h-1.5c-2.1,0-3.7-0.7-4.8-2.2c-1.2,1.9-2.9,2.9-5.3,2.9c-2.4,0-4.2-1-5.3-2.9
			c-1.1,1.4-2.7,2.2-4.8,2.2h-1.5v-2.2h1.2c2.6,0,3.8-1.3,3.8-4v-1.2c0-2.7,0.7-4.7,2-6.2c1.1-1.3,2.7-1.9,4.6-1.9
			c2.2,0,3.9,0.8,5,2.5c1,1.4,1.5,3.3,1.5,5.6v1.2C54.3,87,55.6,88.4,58.2,88.4z M47.8,89.1c1.3,0,2.3-0.5,3-1.6
			c0.7-1.1,1.1-2.5,1.1-4.3c0-3.9-1.4-5.9-4.2-5.9c-2.8,0-4.2,2-4.2,5.9C43.6,87.1,45,89.1,47.8,89.1z"/>
		<path class="st1" d="M58.7,90.5v-2.2h1.2c2.6,0,3.8-1.3,3.8-4v-7.6l2.3-1.2v8.9c0,2-0.6,3.5-1.7,4.6c-1.1,1-2.5,1.5-4.2,1.5H58.7z
			 M60.8,70.9c-1,0-1.4-0.5-1.4-1.5c0-0.9,0.5-1.4,1.4-1.4c0.9,0,1.4,0.5,1.4,1.4C62.1,70.4,61.7,70.9,60.8,70.9z M64.7,70.9
			c-1,0-1.4-0.5-1.4-1.5c0-0.9,0.5-1.4,1.4-1.4c0.9,0,1.4,0.5,1.4,1.4C66.1,70.4,65.7,70.9,64.7,70.9z"/>
		<path class="st1" d="M108.7,88.4h1.2v2.2h-1.5c-2.1,0-3.7-0.7-4.8-2.2c-1.1,1.5-2.7,2.2-4.9,2.2H87.3l1.1-2.2h5.4V73.7l2.3-1.2
			v15.9h2.4c2.7,0,4-1.4,4-4.1v-15l2.3-1.2v7.6l0,0v8.8C104.9,87,106.2,88.4,108.7,88.4z"/>
		<path class="st1" d="M109.3,90.5v-2.2h2.1c2.6,0,3.9-1.3,3.9-4v-5l2.3-1.2v6.3c0,2.7,1.3,4,3.9,4h1.3c2.6,0,3.8-1.3,3.8-4v-6.3
			l2.3-1.3v7.6c0,2.7,1.3,4,3.9,4h1.3c2.6,0,3.9-1.3,3.9-4v-7.6l2.3-1.2v8.9c0,1.9-0.6,3.5-1.7,4.5c-1,1-2.4,1.5-4.2,1.5h-1.9
			c-2.2,0-3.7-0.8-4.7-2.3c-1,1.5-2.6,2.3-4.7,2.3h-1.9c-2.2,0-3.8-0.8-4.8-2.3c-1,1.5-2.6,2.3-4.7,2.3H109.3z"/>
		<path class="st1" d="M166.5,82.6c2.7-5,6.3-7.5,10.9-7.5c2.6,0,4.7,0.9,6.2,2.7c1.3,1.5,2,3.4,2,5.7v1.2c0,3.9-1.7,5.8-5,5.8
			h-21.9l1.2-2.2h4.6V69.2l2.2-1.2V82.6z M183.2,83.5c0-2-0.6-3.5-1.9-4.7c-1.1-1-2.4-1.5-4-1.5c-2.7,0-5.2,1.3-7.3,4
			c-1.6,2-2.8,4.4-3.6,7.1h13.7c1.1,0,1.9-0.3,2.3-0.8c0.4-0.5,0.6-1.5,0.6-2.9V83.5z"/>
		<path class="st1" d="M197.2,90.5c-2,0-3.5-0.6-4.6-1.9c-0.9-1.1-1.3-2.5-1.3-4.2V69.2l2.3-1.2v16.4c0,2.7,1.3,4,3.8,4h1.2v2.2
			H197.2z"/>
		<path class="st1" d="M198,90.5v-2.2h1.2c2.6,0,3.8-1.3,3.8-4v-7.6l2.3-1.2v8.9c0,2-0.6,3.5-1.7,4.6c-1.1,1-2.5,1.5-4.2,1.5H198z
			 M202.6,97.1c-1,0-1.4-0.5-1.4-1.5c0-0.9,0.5-1.4,1.4-1.4c0.9,0,1.4,0.5,1.4,1.4C204,96.6,203.5,97.1,202.6,97.1z"/>
		<path class="st1" d="M222.4,88.4h1.2v2.2h-1.5c-1.4,0-2.6-0.3-3.6-1c-0.2,3.9-1.8,6.3-4.7,7.3c-0.7,0.3-1.5,0.4-2.4,0.4
			c-1.4,0-2.7-0.3-3.9-1v-2.1c1.2,0.7,2.4,1,3.6,1c1,0,1.8-0.2,2.6-0.7c1.6-1,2.5-2.8,2.5-5.5V76.8l2.3-1.2v0l0,0v8.8
			C218.6,87,219.9,88.4,222.4,88.4z"/>
		<path class="st1" d="M223,90.5v-2.2h1c2.7,0,4-1.4,4-4.1v-15l2.3-1.2v16.3c0,2-0.6,3.5-1.8,4.7c-1.1,1-2.5,1.6-4.3,1.6H223z"/>
		<path class="st1" d="M236.6,90.5V69.2l2.3-1.2v22.6H236.6z"/>
	</g>
	<path class="st2" d="M152.9,81.9h-3.5c-0.7,0-1.3-0.6-1.3-1.3l0,0c0-0.7,0.6-1.3,1.3-1.3h3.5c0.7,0,1.3,0.6,1.3,1.3l0,0
		C154.1,81.3,153.6,81.9,152.9,81.9z"/>
	<path class="st2" d="M80.9,81.9h-3.5c-0.7,0-1.3-0.6-1.3-1.3l0,0c0-0.7,0.6-1.3,1.3-1.3h3.5c0.7,0,1.3,0.6,1.3,1.3l0,0
		C82.1,81.3,81.6,81.9,80.9,81.9z"/>
</g>
</svg>
