<svg version="1.1" xmlns="http://www.w3.org/2000/svg" xmlns:xlink="http://www.w3.org/1999/xlink" x="0px" y="0px"
    width="482.4px" height="103.2px" viewBox="0 0 482.4 103.2" xml:space="preserve">
    <style type="text/css">
        .st0,
        .st1 {
            fill: none;
            stroke: rgb(3,65,146);
            stroke-width: 5;
            stroke-miterlimit: 10;
            stroke-dasharray: 380;
            stroke-dashoffset: 0;
            stroke-linejoin: round;
            stroke-linecap: round;
            animation: anime 2s infinite cubic-bezier(0.175, 0.885, 0.32, 1.275);
        }

        .st2 {
            fill: #15213C;
        }

        .st3 {
            stroke: #F19C1A;
            stroke-width: 1;
            stroke-miterlimit: 10;
            stroke-dasharray: 380;
            fill: #F19C1A;
            /* animation: anime 2s infinite cubic-bezier(0.175, 0.885, 0.32, 1.275); */
        }



        @keyframes anime {
            0% {
                stroke-dashoffset: 500;

            }



            50%,
            100% {
                stroke-dashoffset: 0;
                opacity: 1;
            }
        }
    </style>
    <defs>
    </defs>
    <path class="st0" d="M33.1,88.3c-4.6,0-8.8-0.7-12.8-2c-4-1.3-7.4-3.3-10.4-5.8C7,78,4.7,75,3.2,71.6c-0.9-1.8-0.9-3.8,0-5.5
	c0.6-1.1,1.8-2.5,4.3-3.2c0.6-0.2,1.2-0.2,1.8-0.2c1,0,2.1,0.3,3,0.8c1.4,0.7,2.5,1.9,3.3,3.3c0.8,1.5,2,3,3.6,4.2
	c1.6,1.3,3.7,2.3,6,3.1c2.4,0.7,5.1,1.1,8,1.1c3.1,0,5.9-0.5,8.3-1.5c2.3-1,4-2.3,5.2-4.1c1.2-1.8,1.8-3.9,1.8-6.5
	c0-3.3-1.2-6.1-3.6-8.5c-2.5-2.5-6.7-4.1-12.5-4.8c-8.3-1-15-3.7-19.8-7.9c-5-4.4-7.6-10-7.6-16.5c0-4.7,1.3-8.8,3.8-12.3
	c2.5-3.4,5.9-6.1,10.1-7.9c4.1-1.8,8.9-2.7,14.2-2.7c4,0,7.7,0.7,11,1.9c3.3,1.3,6.2,3,8.7,5.1c2.4,2.1,4.5,4.4,6,6.9
	c1.3,2.1,1.3,4,1,5.2c-0.4,1.8-1.5,3.2-3.1,4.1l-0.1,0.1l-0.1,0c-1,0.4-2,0.7-3,0.7c-0.7,0-1.4-0.1-2.2-0.3c-1.7-0.5-3-1.6-3.9-3.1
	c-0.9-1.3-1.9-2.6-3.2-3.7c-1.2-1.1-2.8-2-4.5-2.7c-1.8-0.7-4.1-1.1-6.8-1.1c-4.6,0-8.3,1-11,2.8c-2.4,1.7-3.6,4.1-3.6,7.4
	c0,1.7,0.4,3.3,1.4,4.7c0.9,1.4,2.5,2.7,4.8,3.9c2.5,1.2,6,2.2,10.3,2.8c8.9,1.3,15.7,4.1,20.1,8.4c4.6,4.4,6.9,10.3,6.9,17.3
	c0,4-0.7,7.6-2.2,10.8c-1.5,3.2-3.6,5.9-6.3,8.1c-2.6,2.1-5.7,3.7-9.2,4.8C40.7,87.7,37,88.3,33.1,88.3z" />
    <path class="st0" d="M191.4,88.3c-4.6,0-8.8-0.7-12.8-2c-4-1.3-7.4-3.3-10.4-5.8c-3-2.5-5.3-5.5-6.8-8.9c-0.9-1.8-0.9-3.8,0-5.5
	c0.6-1.1,1.8-2.5,4.3-3.2c0.6-0.2,1.2-0.2,1.8-0.2c1,0,2.1,0.3,3,0.8c1.4,0.7,2.5,1.9,3.3,3.3c0.8,1.5,2,3,3.6,4.2
	c1.6,1.3,3.7,2.3,6,3.1c2.4,0.7,5.1,1.1,8,1.1c3.1,0,5.9-0.5,8.3-1.5c2.3-1,4-2.3,5.2-4.1c1.2-1.8,1.8-3.9,1.8-6.5
	c0-3.3-1.2-6.1-3.6-8.5c-2.5-2.5-6.7-4.1-12.5-4.8c-8.3-1-15-3.7-19.8-7.9c-5-4.4-7.6-10-7.6-16.5c0-4.7,1.3-8.8,3.8-12.3
	c2.5-3.4,5.9-6.1,10.1-7.9c4.1-1.8,8.9-2.7,14.2-2.7c4,0,7.7,0.7,11,1.9c3.3,1.3,6.2,3,8.7,5.1c2.4,2.1,4.5,4.4,6,6.9
	c1.3,2.1,1.3,4,1,5.2c-0.4,1.8-1.5,3.2-3.1,4.1l-0.1,0.1l-0.1,0c-1,0.4-2,0.7-3,0.7c-0.7,0-1.4-0.1-2.2-0.3c-1.7-0.5-3-1.6-3.9-3.1
	c-0.9-1.3-2-2.6-3.2-3.7c-1.2-1.1-2.8-2-4.5-2.7c-1.8-0.7-4.1-1.1-6.8-1.1c-4.6,0-8.3,1-11,2.8c-2.4,1.7-3.6,4.1-3.6,7.4
	c0,1.7,0.4,3.3,1.4,4.7c0.9,1.4,2.5,2.7,4.8,3.9c2.5,1.2,6,2.2,10.3,2.8c8.9,1.3,15.7,4.1,20.1,8.4c4.6,4.4,6.9,10.3,6.9,17.3
	c0,4-0.7,7.6-2.2,10.8c-1.5,3.2-3.6,5.9-6.3,8.1c-2.6,2.1-5.7,3.7-9.2,4.8C199,87.7,195.3,88.3,191.4,88.3z" />
    <path class="st0" d="M151.4,47.7c0,22.4-18.1,40.5-40.5,40.5c-2.1,0-4.1-0.1-6.1-0.4L92.3,99.5c-2.8,2.6-7.3,0.6-7.3-3.1V79
	c-9-7.4-14.7-18.7-14.7-31.3c0-22.4,18.1-40.5,40.5-40.5C133.2,7.2,151.4,25.3,151.4,47.7z" />
    <circle class="st1" cx="93.2" cy="46.8" r="2.5" />
    <circle class="st1" cx="109.1" cy="46.8" r="2.5" />
    <circle class="st1" cx="125.1" cy="46.8" r="2.5" />
    <g>
        <path class="st2" d="M284.8,13.5c1.4-2.1,4.1-1.4,4.1,1.1v33.8c0,2.8-4.3,2.8-4.3,0V21.6l-12,18.7c-0.9,1.7-3.2,1.7-4.1,0l-12-18.7
		v26.7c0,2.8-4.3,2.8-4.3,0V14.5c0-2.5,2.8-3.2,4-1.1l14.3,22.3L284.8,13.5z" />
        <path class="st2" d="M310,40.1l-4.8,9.3c-1.1,2.2-4.9,0.6-3.9-1.7l17.7-34.9c0.4-0.8,1.2-1.1,1.9-1.1s1.5,0.4,1.9,1.1l17.7,34.8
		c1.5,2.5-2.8,4-3.9,1.7l-4.6-9.1H310z M321.1,17.9l-9.3,18.5h18.5L321.1,17.9z" />
        <path class="st2" d="M357.5,36.9v11.4c0,2.7-4.3,2.7-4.3,0.1V14.6c0-1.2,0.9-2.1,2.2-2.1h13.9c10.2,0,15.3,5.8,15.3,12.6
		c0,5.9-3.2,10.2-10.4,11.4l9.5,10.3c2.2,2.2-1,4.8-2.9,2.8l-11.9-12.9H357.5z M357.5,33.2h11.9c7.7,0,11-3.6,10.9-8
		c-0.1-4.8-4.1-8.7-10.9-8.7h-11.9V33.2z" />
        <path class="st2" d="M397.2,30.6c0-9.2,6.2-17.1,15.6-18.6c2.2-0.3,4.2-0.2,6.2,0c9,1.4,16,8.9,16,18.6c0,12.2-8.8,20-18.8,20
		C405.6,50.6,397.2,43.1,397.2,30.6z M401.6,30.8c0,9.6,6.3,15.7,14.6,15.7c7.9,0,14.4-5.9,14.4-15.7c0-7.6-5-13.6-12.2-14.8
		c-1.8-0.2-3.5-0.2-5.1,0C406.2,17.1,401.6,22.8,401.6,30.8z" />
        <path class="st2" d="M475.4,48.5c-2.8,1.3-6,2.1-8.8,2.1c-10,0-19.1-8.2-19.1-19.8c0-9.6,6.9-17.3,15.9-18.7
		c6.9-0.9,12.9,0.8,17.5,5.6c1.8,2-1.4,4.4-3.1,2.6c-4-4.2-8.6-4.9-13.8-4.3c-7.2,1.1-12.3,6.2-12.3,14.7c0,8.9,6.9,15.7,15,15.7
		c2.2,0,4.6-0.6,6.8-1.7c1.8-0.9,3.6-2.3,4.8-3.9c1.4-2,4.9,0.2,3.4,2.3C480.2,45.5,478,47.2,475.4,48.5z" />
    </g>
    <g>
        <path class="st2" d="M253.1,82.1c-0.3,0-0.5-0.1-0.6-0.2c-0.2-0.2-0.2-0.4-0.2-0.6V65.6c0-0.3,0.1-0.5,0.2-0.6
		c0.2-0.2,0.4-0.2,0.6-0.2h4.2c1.1,0,2,0.2,2.9,0.7c0.8,0.5,1.5,1.1,2,1.9c0.5,0.8,0.7,1.7,0.7,2.8c0,1-0.2,1.9-0.7,2.7
		c-0.5,0.8-1.1,1.4-2,1.8c-0.8,0.4-1.8,0.7-2.9,0.7H254v5.9c0,0.3-0.1,0.5-0.2,0.6C253.6,82,253.4,82.1,253.1,82.1z M254,73.6h3.3
		c0.8,0,1.4-0.2,2-0.5c0.6-0.3,1.1-0.7,1.4-1.3c0.3-0.5,0.5-1.1,0.5-1.8c0-0.7-0.2-1.4-0.5-1.9c-0.3-0.6-0.8-1-1.4-1.3
		c-0.6-0.3-1.3-0.5-2-0.5H254V73.6z M262.4,82.1c-0.2,0-0.3,0-0.5-0.1c-0.1-0.1-0.2-0.2-0.3-0.3l-4.3-6.8l1.7-0.4l4,6.4
		c0.2,0.4,0.3,0.7,0.1,0.9C263.1,82,262.8,82.1,262.4,82.1z" />
        <path class="st2" d="M271.2,82.2c-1.1,0-2.2-0.3-3.1-0.8c-0.9-0.5-1.6-1.3-2.1-2.2c-0.5-0.9-0.8-2-0.8-3.2c0-1.2,0.3-2.2,0.8-3.2
		c0.5-0.9,1.3-1.7,2.2-2.2c0.9-0.5,2-0.8,3.2-0.8c1.2,0,2.2,0.3,3.1,0.8c0.9,0.5,1.7,1.3,2.2,2.2c0.5,0.9,0.8,2,0.8,3.2l-0.7,0.5
		c0,1.1-0.2,2-0.7,2.9s-1.2,1.5-2,2C273.2,81.9,272.2,82.2,271.2,82.2z M271.3,80.6c0.9,0,1.6-0.2,2.3-0.6c0.7-0.4,1.2-1,1.6-1.7
		c0.4-0.7,0.6-1.5,0.6-2.4c0-0.9-0.2-1.7-0.6-2.4c-0.4-0.7-0.9-1.2-1.6-1.7c-0.7-0.4-1.4-0.6-2.3-0.6c-0.8,0-1.6,0.2-2.3,0.6
		c-0.7,0.4-1.2,1-1.6,1.7c-0.4,0.7-0.6,1.5-0.6,2.4c0,0.9,0.2,1.7,0.6,2.4c0.4,0.7,0.9,1.3,1.6,1.7
		C269.7,80.4,270.5,80.6,271.3,80.6z M276.7,82.1c-0.3,0-0.5-0.1-0.6-0.2c-0.2-0.2-0.2-0.4-0.2-0.6v-3.8l0.4-1.8l1.3,0.3v5.2
		c0,0.3-0.1,0.5-0.2,0.6C277.1,82,276.9,82.1,276.7,82.1z" />
        <path class="st2" d="M287,82.2c-1.2,0-2.2-0.3-3.1-0.8c-0.9-0.5-1.7-1.3-2.2-2.2c-0.5-0.9-0.8-2-0.8-3.1V65.6
		c0-0.3,0.1-0.5,0.2-0.6c0.2-0.2,0.4-0.2,0.6-0.2c0.3,0,0.5,0.1,0.6,0.2c0.2,0.2,0.2,0.4,0.2,0.6v6.5c0.5-0.7,1.1-1.3,1.9-1.7
		c0.8-0.4,1.7-0.6,2.7-0.6c1.1,0,2.2,0.3,3.1,0.8c0.9,0.5,1.6,1.3,2.1,2.2c0.5,0.9,0.8,2,0.8,3.2c0,1.2-0.3,2.2-0.8,3.2
		c-0.5,0.9-1.3,1.7-2.2,2.2C289.3,81.9,288.2,82.2,287,82.2z M287,80.6c0.9,0,1.6-0.2,2.3-0.6c0.7-0.4,1.2-1,1.6-1.7
		c0.4-0.7,0.6-1.5,0.6-2.4c0-0.9-0.2-1.7-0.6-2.4c-0.4-0.7-0.9-1.3-1.6-1.7c-0.7-0.4-1.5-0.6-2.3-0.6c-0.8,0-1.6,0.2-2.3,0.6
		c-0.7,0.4-1.2,1-1.6,1.7c-0.4,0.7-0.6,1.5-0.6,2.4c0,0.9,0.2,1.7,0.6,2.4c0.4,0.7,0.9,1.3,1.6,1.7C285.4,80.4,286.2,80.6,287,80.6z
		" />
        <path class="st2" d="M302,82.2c-1.1,0-2.2-0.3-3.1-0.8c-0.9-0.5-1.6-1.3-2.1-2.2c-0.5-0.9-0.8-2-0.8-3.2c0-1.2,0.3-2.2,0.8-3.2
		c0.5-0.9,1.3-1.7,2.2-2.2c0.9-0.5,2-0.8,3.2-0.8c1.2,0,2.2,0.3,3.1,0.8c0.9,0.5,1.7,1.3,2.2,2.2c0.5,0.9,0.8,2,0.8,3.2l-0.7,0.5
		c0,1.1-0.2,2-0.7,2.9s-1.2,1.5-2,2C304,81.9,303,82.2,302,82.2z M302.1,80.6c0.9,0,1.6-0.2,2.3-0.6c0.7-0.4,1.2-1,1.6-1.7
		c0.4-0.7,0.6-1.5,0.6-2.4c0-0.9-0.2-1.7-0.6-2.4c-0.4-0.7-0.9-1.2-1.6-1.7c-0.7-0.4-1.4-0.6-2.3-0.6c-0.8,0-1.6,0.2-2.3,0.6
		c-0.7,0.4-1.2,1-1.6,1.7c-0.4,0.7-0.6,1.5-0.6,2.4c0,0.9,0.2,1.7,0.6,2.4c0.4,0.7,0.9,1.3,1.6,1.7
		C300.5,80.4,301.3,80.6,302.1,80.6z M307.5,82.1c-0.3,0-0.5-0.1-0.6-0.2c-0.2-0.2-0.2-0.4-0.2-0.6v-3.8l0.4-1.8l1.3,0.3v5.2
		c0,0.3-0.1,0.5-0.2,0.6C307.9,82,307.7,82.1,307.5,82.1z" />
        <path class="st2" d="M310.9,71.8c-0.2,0-0.4-0.1-0.6-0.2c-0.1-0.1-0.2-0.3-0.2-0.5c0-0.2,0.1-0.4,0.2-0.5c0.1-0.1,0.3-0.2,0.6-0.2
		h5.7c0.2,0,0.4,0.1,0.6,0.2c0.1,0.1,0.2,0.3,0.2,0.5c0,0.2-0.1,0.4-0.2,0.5c-0.1,0.1-0.3,0.2-0.6,0.2H310.9z M316.4,82.1
		c-0.8,0-1.5-0.2-2.1-0.6c-0.6-0.4-1.1-0.9-1.5-1.5c-0.4-0.6-0.5-1.4-0.5-2.2V66.9c0-0.3,0.1-0.5,0.2-0.6c0.2-0.2,0.4-0.2,0.6-0.2
		c0.3,0,0.5,0.1,0.6,0.2c0.2,0.2,0.2,0.4,0.2,0.6v10.9c0,0.8,0.2,1.4,0.7,1.9c0.4,0.5,1,0.7,1.7,0.7h0.6c0.2,0,0.4,0.1,0.6,0.2
		c0.1,0.2,0.2,0.4,0.2,0.6c0,0.3-0.1,0.5-0.3,0.6c-0.2,0.2-0.4,0.2-0.7,0.2H316.4z" />
    </g>
    <g>
        <path class="st2" d="M341.5,82.4c-0.9,0-1.8-0.1-2.6-0.4s-1.5-0.7-2.1-1.2c-0.6-0.5-1-1.1-1.4-1.8c-0.1-0.2-0.1-0.5,0-0.7
		c0.1-0.2,0.3-0.3,0.6-0.4c0.2-0.1,0.4,0,0.6,0.1c0.2,0.1,0.4,0.3,0.5,0.5c0.2,0.4,0.5,0.8,1,1.2c0.4,0.3,0.9,0.6,1.5,0.8
		c0.6,0.2,1.2,0.3,2,0.3c0.8,0,1.5-0.1,2.1-0.4c0.6-0.3,1.1-0.6,1.4-1.1c0.3-0.5,0.5-1.1,0.5-1.8c0-0.9-0.3-1.7-1-2.3
		c-0.7-0.7-1.7-1.1-3.1-1.2c-1.7-0.2-3.1-0.7-4.1-1.6c-1-0.9-1.5-1.9-1.5-3.2c0-0.9,0.2-1.7,0.7-2.4c0.5-0.7,1.1-1.2,2-1.5
		c0.8-0.4,1.8-0.5,2.9-0.5c0.8,0,1.6,0.1,2.2,0.4c0.7,0.3,1.3,0.6,1.7,1c0.5,0.4,0.9,0.9,1.2,1.4c0.1,0.2,0.2,0.5,0.1,0.7
		c-0.1,0.2-0.2,0.4-0.4,0.5c-0.2,0.1-0.4,0.1-0.7,0c-0.2-0.1-0.4-0.2-0.5-0.4c-0.2-0.3-0.5-0.7-0.8-1c-0.3-0.3-0.7-0.5-1.2-0.7
		c-0.5-0.2-1-0.3-1.7-0.3c-1.2,0-2.1,0.2-2.8,0.7c-0.7,0.5-1.1,1.2-1.1,2.2c0,0.5,0.1,1,0.4,1.4s0.7,0.8,1.3,1.1
		c0.6,0.3,1.4,0.5,2.5,0.7c1.9,0.3,3.2,0.8,4.1,1.7c0.9,0.9,1.3,2,1.3,3.4c0,0.8-0.1,1.5-0.4,2.1c-0.3,0.6-0.7,1.1-1.2,1.6
		c-0.5,0.4-1.1,0.7-1.8,1C343,82.3,342.3,82.4,341.5,82.4z" />
        <path class="st2" d="M356,82.3c-1.1,0-2.2-0.3-3.1-0.8c-0.9-0.5-1.6-1.3-2.1-2.2c-0.5-0.9-0.8-2-0.8-3.2c0-1.2,0.3-2.2,0.8-3.2
		c0.5-0.9,1.3-1.7,2.2-2.2c0.9-0.5,2-0.8,3.2-0.8c1.2,0,2.2,0.3,3.1,0.8c0.9,0.5,1.7,1.3,2.2,2.2c0.5,0.9,0.8,2,0.8,3.2l-0.7,0.5
		c0,1.1-0.2,2-0.7,2.9s-1.2,1.5-2,2C358,82,357.1,82.3,356,82.3z M356.2,80.7c0.9,0,1.6-0.2,2.3-0.6c0.7-0.4,1.2-1,1.6-1.7
		c0.4-0.7,0.6-1.5,0.6-2.4c0-0.9-0.2-1.7-0.6-2.4c-0.4-0.7-0.9-1.2-1.6-1.7c-0.7-0.4-1.4-0.6-2.3-0.6c-0.8,0-1.6,0.2-2.3,0.6
		c-0.7,0.4-1.2,1-1.6,1.7c-0.4,0.7-0.6,1.5-0.6,2.4c0,0.9,0.2,1.7,0.6,2.4c0.4,0.7,0.9,1.3,1.6,1.7
		C354.6,80.5,355.3,80.7,356.2,80.7z M361.5,82.1c-0.3,0-0.5-0.1-0.6-0.2c-0.2-0.2-0.2-0.4-0.2-0.6v-3.8l0.4-1.8l1.3,0.3v5.2
		c0,0.3-0.1,0.5-0.2,0.6C361.9,82.1,361.7,82.1,361.5,82.1z" />
        <path class="st2" d="M368.3,82.1c-0.6,0-1.1-0.2-1.6-0.5c-0.5-0.3-0.8-0.8-1.1-1.4c-0.3-0.6-0.4-1.2-0.4-2V65.6
		c0-0.3,0.1-0.5,0.2-0.6c0.2-0.2,0.4-0.2,0.6-0.2c0.3,0,0.5,0.1,0.6,0.2c0.2,0.2,0.2,0.4,0.2,0.6v12.7c0,0.6,0.1,1.2,0.4,1.6
		c0.3,0.4,0.6,0.6,1,0.6h0.6c0.2,0,0.4,0.1,0.5,0.2c0.1,0.2,0.2,0.4,0.2,0.6c0,0.3-0.1,0.5-0.3,0.6c-0.2,0.2-0.4,0.2-0.7,0.2H368.3z
		" />
        <path class="st2" d="M376.8,82.3c-1.2,0-2.3-0.3-3.2-0.8c-0.9-0.5-1.7-1.3-2.2-2.2c-0.5-0.9-0.8-2-0.8-3.2c0-1.2,0.2-2.3,0.7-3.2
		c0.5-0.9,1.2-1.7,2.1-2.2s1.9-0.8,3-0.8c1.1,0,2.1,0.3,2.9,0.8c0.8,0.5,1.5,1.2,1.9,2.1s0.7,1.9,0.7,3.1c0,0.2-0.1,0.4-0.2,0.6
		c-0.1,0.1-0.3,0.2-0.6,0.2h-9.5v-1.4h9.6l-1,0.7c0-0.9-0.1-1.6-0.5-2.3s-0.8-1.2-1.4-1.6s-1.3-0.6-2.1-0.6c-0.8,0-1.6,0.2-2.2,0.6
		c-0.6,0.4-1.1,1-1.5,1.7c-0.3,0.7-0.5,1.5-0.5,2.4c0,0.9,0.2,1.7,0.6,2.4c0.4,0.7,0.9,1.2,1.6,1.6c0.7,0.4,1.5,0.6,2.4,0.6
		c0.5,0,1.1-0.1,1.6-0.3c0.5-0.2,1-0.4,1.3-0.7c0.2-0.1,0.3-0.2,0.6-0.2c0.2,0,0.4,0,0.5,0.2c0.2,0.2,0.3,0.4,0.3,0.6
		c0,0.2-0.1,0.4-0.3,0.5c-0.5,0.4-1.1,0.8-1.9,1C378.2,82.1,377.5,82.3,376.8,82.3z" />
    </g>
    <g>
        <path class="st2"
            d="M399.4,66.3c-0.2,0-0.4-0.1-0.6-0.2c-0.1-0.1-0.2-0.3-0.2-0.6c0-0.2,0.1-0.4,0.2-0.6c0.1-0.1,0.3-0.2,0.6-0.2
		h12.3c0.2,0,0.4,0.1,0.6,0.2c0.1,0.1,0.2,0.3,0.2,0.6c0,0.2-0.1,0.4-0.2,0.6c-0.1,0.1-0.3,0.2-0.6,0.2H399.4z M405.6,82.1
		c-0.2,0-0.4-0.1-0.6-0.3c-0.2-0.2-0.3-0.4-0.3-0.6V64.7h1.7v16.5c0,0.2-0.1,0.4-0.2,0.6C406,82,405.8,82.1,405.6,82.1z" />
        <path class="st2" d="M417.1,82.2c-1.2,0-2.3-0.3-3.2-0.8c-0.9-0.5-1.7-1.3-2.2-2.2c-0.5-0.9-0.8-2-0.8-3.2c0-1.2,0.2-2.3,0.7-3.2
		c0.5-0.9,1.2-1.7,2.1-2.2c0.9-0.5,1.9-0.8,3-0.8c1.1,0,2.1,0.3,2.9,0.8c0.8,0.5,1.5,1.2,1.9,2.1c0.5,0.9,0.7,1.9,0.7,3.1
		c0,0.2-0.1,0.4-0.2,0.6c-0.1,0.1-0.3,0.2-0.6,0.2h-9.5v-1.4h9.6l-1,0.7c0-0.9-0.1-1.6-0.5-2.3s-0.8-1.2-1.4-1.6s-1.3-0.6-2.1-0.6
		c-0.8,0-1.6,0.2-2.2,0.6c-0.6,0.4-1.1,1-1.5,1.7c-0.3,0.7-0.5,1.5-0.5,2.4c0,0.9,0.2,1.7,0.6,2.4c0.4,0.7,0.9,1.2,1.6,1.6
		c0.7,0.4,1.5,0.6,2.4,0.6c0.5,0,1.1-0.1,1.6-0.3c0.5-0.2,1-0.4,1.3-0.7c0.2-0.1,0.3-0.2,0.6-0.2c0.2,0,0.4,0,0.5,0.2
		c0.2,0.2,0.3,0.4,0.3,0.6c0,0.2-0.1,0.4-0.3,0.5c-0.5,0.4-1.1,0.8-1.9,1C418.5,82.1,417.8,82.2,417.1,82.2z" />
        <path class="st2" d="M426.1,82.1c-0.3,0-0.5-0.1-0.6-0.2c-0.2-0.2-0.2-0.4-0.2-0.6V70.8c0-0.3,0.1-0.5,0.2-0.6
		c0.2-0.2,0.4-0.2,0.6-0.2c0.3,0,0.5,0.1,0.6,0.2c0.2,0.2,0.2,0.4,0.2,0.6v10.5c0,0.3-0.1,0.5-0.2,0.6
		C426.5,82,426.3,82.1,426.1,82.1z M433.9,82.1c-0.3,0-0.5-0.1-0.6-0.2c-0.2-0.2-0.2-0.4-0.2-0.6v-6.4c0-1.1-0.3-1.9-0.8-2.5
		c-0.5-0.6-1.3-0.9-2.1-0.9c-0.9,0-1.7,0.3-2.3,0.9c-0.6,0.6-0.9,1.4-0.9,2.3h-1.2c0-0.9,0.2-1.8,0.6-2.5c0.4-0.7,0.9-1.3,1.6-1.7
		c0.7-0.4,1.5-0.6,2.3-0.6c0.9,0,1.7,0.2,2.3,0.6c0.7,0.4,1.2,1,1.6,1.8c0.4,0.8,0.6,1.6,0.6,2.7v6.4c0,0.3-0.1,0.5-0.2,0.6
		C434.3,82,434.1,82.1,433.9,82.1z M441.7,82.1c-0.3,0-0.5-0.1-0.6-0.2c-0.2-0.2-0.2-0.4-0.2-0.6v-6.4c0-1.1-0.3-1.9-0.8-2.5
		c-0.5-0.6-1.3-0.9-2.1-0.9c-0.9,0-1.7,0.3-2.3,0.9c-0.6,0.6-0.9,1.4-0.9,2.5h-1.5c0-1,0.2-1.9,0.6-2.6c0.4-0.8,1-1.3,1.7-1.8
		c0.7-0.4,1.6-0.6,2.5-0.6c0.9,0,1.7,0.2,2.3,0.6c0.7,0.4,1.2,1,1.6,1.8c0.4,0.8,0.6,1.6,0.6,2.7v6.4c0,0.3-0.1,0.5-0.2,0.6
		C442.1,82,441.9,82.1,441.7,82.1z" />
        <path class="st2" d="M451.6,82.2c-1.1,0-2.2-0.3-3.1-0.8c-0.9-0.5-1.6-1.3-2.1-2.2c-0.5-0.9-0.8-2-0.8-3.2c0-1.2,0.3-2.2,0.8-3.2
		c0.5-0.9,1.3-1.7,2.2-2.2c0.9-0.5,2-0.8,3.2-0.8c1.2,0,2.2,0.3,3.1,0.8c0.9,0.5,1.7,1.3,2.2,2.2c0.5,0.9,0.8,2,0.8,3.2l-0.7,0.5
		c0,1.1-0.2,2-0.7,2.9s-1.2,1.5-2,2C453.7,81.9,452.7,82.2,451.6,82.2z M451.8,80.6c0.9,0,1.6-0.2,2.3-0.6c0.7-0.4,1.2-1,1.6-1.7
		c0.4-0.7,0.6-1.5,0.6-2.4c0-0.9-0.2-1.7-0.6-2.4c-0.4-0.7-0.9-1.2-1.6-1.7c-0.7-0.4-1.4-0.6-2.3-0.6c-0.8,0-1.6,0.2-2.3,0.6
		c-0.7,0.4-1.2,1-1.6,1.7c-0.4,0.7-0.6,1.5-0.6,2.4c0,0.9,0.2,1.7,0.6,2.4c0.4,0.7,0.9,1.3,1.6,1.7C450.2,80.4,451,80.6,451.8,80.6z
		 M457.1,82.1c-0.3,0-0.5-0.1-0.6-0.2c-0.2-0.2-0.2-0.4-0.2-0.6v-3.8l0.4-1.8L458,76v5.2c0,0.3-0.1,0.5-0.2,0.6
		C457.6,82,457.4,82.1,457.1,82.1z" />
        <path class="st2" d="M462.2,82.1c-0.3,0-0.5-0.1-0.6-0.2c-0.1-0.1-0.2-0.4-0.2-0.6V70.8c0-0.3,0.1-0.5,0.2-0.6
		c0.1-0.1,0.4-0.2,0.6-0.2s0.5,0.1,0.6,0.2c0.1,0.1,0.2,0.4,0.2,0.6v10.5c0,0.3-0.1,0.5-0.2,0.6C462.7,82,462.5,82.1,462.2,82.1z
		 M462.1,74.6c0-0.9,0.3-1.7,0.7-2.5c0.4-0.7,1-1.3,1.7-1.7c0.7-0.4,1.5-0.6,2.3-0.6c0.7,0,1.2,0.1,1.6,0.3c0.4,0.2,0.5,0.5,0.4,0.8
		c-0.1,0.2-0.2,0.4-0.3,0.4c-0.1,0.1-0.3,0.1-0.5,0.1c-0.2,0-0.4,0-0.7,0c-0.8-0.1-1.6,0-2.2,0.3c-0.6,0.2-1.2,0.6-1.5,1.1
		c-0.4,0.5-0.6,1.1-0.6,1.8H462.1z" />
        <path class="st2" d="M476,82.2c-1.1,0-2.2-0.3-3.1-0.8c-0.9-0.5-1.6-1.3-2.1-2.2c-0.5-0.9-0.8-2-0.8-3.2c0-1.2,0.3-2.2,0.8-3.2
		c0.5-0.9,1.3-1.7,2.2-2.2c0.9-0.5,2-0.8,3.2-0.8c1.2,0,2.2,0.3,3.1,0.8c0.9,0.5,1.7,1.3,2.2,2.2c0.5,0.9,0.8,2,0.8,3.2l-0.7,0.5
		c0,1.1-0.2,2-0.7,2.9s-1.2,1.5-2,2C478.1,81.9,477.1,82.2,476,82.2z M476.2,80.6c0.9,0,1.6-0.2,2.3-0.6c0.7-0.4,1.2-1,1.6-1.7
		c0.4-0.7,0.6-1.5,0.6-2.4c0-0.9-0.2-1.7-0.6-2.4c-0.4-0.7-0.9-1.2-1.6-1.7c-0.7-0.4-1.4-0.6-2.3-0.6c-0.8,0-1.6,0.2-2.3,0.6
		c-0.7,0.4-1.2,1-1.6,1.7c-0.4,0.7-0.6,1.5-0.6,2.4c0,0.9,0.2,1.7,0.6,2.4c0.4,0.7,0.9,1.3,1.6,1.7
		C474.6,80.4,475.3,80.6,476.2,80.6z M481.5,82.1c-0.3,0-0.5-0.1-0.6-0.2c-0.2-0.2-0.2-0.4-0.2-0.6v-3.8l0.4-1.8l1.3,0.3v5.2
		c0,0.3-0.1,0.5-0.2,0.6C482,82,481.8,82.1,481.5,82.1z" />
    </g>
    <path class="st3" d="M328.7,76.6h-3.5c-0.7,0-1.3-0.6-1.3-1.3v0c0-0.7,0.6-1.3,1.3-1.3h3.5c0.7,0,1.3,0.6,1.3,1.3v0
	C330,76,329.4,76.6,328.7,76.6z" />
    <path class="st3" d="M394.2,76.6h-3.5c-0.7,0-1.3-0.6-1.3-1.3v0c0-0.7,0.6-1.3,1.3-1.3h3.5c0.7,0,1.3,0.6,1.3,1.3v0
	C395.4,76,394.9,76.6,394.2,76.6z" />
</svg>