<svg version="1.1" xmlns="http://www.w3.org/2000/svg" xmlns:xlink="http://www.w3.org/1999/xlink" x="0px" y="0px"
    height="103.2px" width="400px" viewBox="0 0 500 103.2" xml:space="preserve">
    <style type="text/css">
        .st0,
        .st1 {
            fill: none;
            stroke: #F19C1A;
            stroke-width: 5;
            stroke-miterlimit: 10;
            stroke-dasharray: 380;
            stroke-dashoffset: 0;
            stroke-linejoin: round;
            stroke-linecap: round;
            animation: anime 2s infinite cubic-bezier(0.175, 0.885, 0.32, 1.275);
        }

        .st2 {
            fill: #F19C1A;
        }



        @keyframes anime {
            0% {
                stroke-dashoffset: 380;

            }



            50%,
            100% {
                stroke-dashoffset: 0;
                opacity: 1;
            }
        }
    </style>
    <defs>
    </defs>
    <path class="st0" d="M33.1,88.3c-4.6,0-8.8-0.7-12.8-2c-4-1.3-7.4-3.3-10.4-5.8C7,78,4.7,75,3.2,71.6c-0.9-1.8-0.9-3.8,0-5.5
	c0.6-1.1,1.8-2.5,4.3-3.2c0.6-0.2,1.2-0.2,1.8-0.2c1,0,2.1,0.3,3,0.8c1.4,0.7,2.5,1.9,3.3,3.3c0.8,1.5,2,3,3.6,4.2
	c1.6,1.3,3.7,2.3,6,3.1c2.4,0.7,5.1,1.1,8,1.1c3.1,0,5.9-0.5,8.3-1.5c2.3-1,4-2.3,5.2-4.1c1.2-1.8,1.8-3.9,1.8-6.5
	c0-3.3-1.2-6.1-3.6-8.5c-2.5-2.5-6.7-4.1-12.5-4.8c-8.3-1-15-3.7-19.8-7.9c-5-4.4-7.6-10-7.6-16.5c0-4.7,1.3-8.8,3.8-12.3
	c2.5-3.4,5.9-6.1,10.1-7.9c4.1-1.8,8.9-2.7,14.2-2.7c4,0,7.7,0.7,11,1.9c3.3,1.3,6.2,3,8.7,5.1c2.4,2.1,4.5,4.4,6,6.9
	c1.3,2.1,1.3,4,1,5.2c-0.4,1.8-1.5,3.2-3.1,4.1l-0.1,0.1l-0.1,0c-1,0.4-2,0.7-3,0.7c-0.7,0-1.4-0.1-2.2-0.3c-1.7-0.5-3-1.6-3.9-3.1
	c-0.9-1.3-1.9-2.6-3.2-3.7c-1.2-1.1-2.8-2-4.5-2.7c-1.8-0.7-4.1-1.1-6.8-1.1c-4.6,0-8.3,1-11,2.8c-2.4,1.7-3.6,4.1-3.6,7.4
	c0,1.7,0.4,3.3,1.4,4.7c0.9,1.4,2.5,2.7,4.8,3.9c2.5,1.2,6,2.2,10.3,2.8c8.9,1.3,15.7,4.1,20.1,8.4c4.6,4.4,6.9,10.3,6.9,17.3
	c0,4-0.7,7.6-2.2,10.8c-1.5,3.2-3.6,5.9-6.3,8.1c-2.6,2.1-5.7,3.7-9.2,4.8C40.7,87.7,37,88.3,33.1,88.3z" />
    <path class="st0" d="M191.4,88.3c-4.6,0-8.8-0.7-12.8-2c-4-1.3-7.4-3.3-10.4-5.8c-3-2.5-5.3-5.5-6.8-8.9c-0.9-1.8-0.9-3.8,0-5.5
	c0.6-1.1,1.8-2.5,4.3-3.2c0.6-0.2,1.2-0.2,1.8-0.2c1,0,2.1,0.3,3,0.8c1.4,0.7,2.5,1.9,3.3,3.3c0.8,1.5,2,3,3.6,4.2
	c1.6,1.3,3.7,2.3,6,3.1c2.4,0.7,5.1,1.1,8,1.1c3.1,0,5.9-0.5,8.3-1.5c2.3-1,4-2.3,5.2-4.1c1.2-1.8,1.8-3.9,1.8-6.5
	c0-3.3-1.2-6.1-3.6-8.5c-2.5-2.5-6.7-4.1-12.5-4.8c-8.3-1-15-3.7-19.8-7.9c-5-4.4-7.6-10-7.6-16.5c0-4.7,1.3-8.8,3.8-12.3
	c2.5-3.4,5.9-6.1,10.1-7.9c4.1-1.8,8.9-2.7,14.2-2.7c4,0,7.7,0.7,11,1.9c3.3,1.3,6.2,3,8.7,5.1c2.4,2.1,4.5,4.4,6,6.9
	c1.3,2.1,1.3,4,1,5.2c-0.4,1.8-1.5,3.2-3.1,4.1l-0.1,0.1l-0.1,0c-1,0.4-2,0.7-3,0.7c-0.7,0-1.4-0.1-2.2-0.3c-1.7-0.5-3-1.6-3.9-3.1
	c-0.9-1.3-2-2.6-3.2-3.7c-1.2-1.1-2.8-2-4.5-2.7c-1.8-0.7-4.1-1.1-6.8-1.1c-4.6,0-8.3,1-11,2.8c-2.4,1.7-3.6,4.1-3.6,7.4
	c0,1.7,0.4,3.3,1.4,4.7c0.9,1.4,2.5,2.7,4.8,3.9c2.5,1.2,6,2.2,10.3,2.8c8.9,1.3,15.7,4.1,20.1,8.4c4.6,4.4,6.9,10.3,6.9,17.3
	c0,4-0.7,7.6-2.2,10.8c-1.5,3.2-3.6,5.9-6.3,8.1c-2.6,2.1-5.7,3.7-9.2,4.8C199,87.7,195.3,88.3,191.4,88.3z" />
    <path class="st0" d="M151.4,47.7c0,22.4-18.1,40.5-40.5,40.5c-2.1,0-4.1-0.1-6.1-0.4L92.3,99.5c-2.8,2.6-7.3,0.6-7.3-3.1V79
	c-9-7.4-14.7-18.7-14.7-31.3c0-22.4,18.1-40.5,40.5-40.5C133.2,7.2,151.4,25.3,151.4,47.7z" />
    <circle class="st1" cx="93.2" cy="46.8" r="2.5" />
    <circle class="st1" cx="109.1" cy="46.8" r="2.5" />
    <circle class="st1" cx="125.1" cy="46.8" r="2.5" />
    <g>
        <g>
            <path d="M280.9,17.9c1.4-2.2,4.2-1.5,4.2,1.1v35.1c0,2.9-4.5,2.9-4.5,0V26.4l-12.4,19.5c-1,1.8-3.3,1.8-4.2,0l-12.4-19.4v27.7
			c0,2.9-4.5,2.9-4.5,0V19c0-2.6,2.9-3.3,4.1-1.1l14.9,23.2L280.9,17.9z" />
            <path d="M307.1,45.5l-4.9,9.6c-1.1,2.3-5.1,0.7-4-1.8l18.4-36.3c0.4-0.8,1.2-1.2,2-1.2s1.5,0.4,2,1.2l18.4,36.1
			c1.6,2.6-2.9,4.1-4.1,1.8l-4.8-9.5H307.1z M318.6,22.5l-9.6,19.2h19.2L318.6,22.5z" />
            <path
                d="M356.4,42.2V54c0,2.8-4.5,2.8-4.5,0.1v-35c0-1.3,0.9-2.1,2.3-2.1h14.5c10.6,0,15.9,6,15.9,13.1c0,6.2-3.4,10.6-10.9,11.9
			l9.9,10.7c2.3,2.3-1,5-3.1,2.9l-12.3-13.4H356.4z M356.4,38.4h12.3c8,0,11.5-3.7,11.3-8.3c-0.1-5-4.3-9-11.3-9h-12.3V38.4z" />
            <path d="M397.7,35.7c0-9.6,6.5-17.8,16.2-19.3c2.3-0.3,4.3-0.2,6.5,0c9.4,1.5,16.7,9.3,16.7,19.3c0,12.7-9.2,20.7-19.5,20.7
			C406.5,56.5,397.7,48.7,397.7,35.7z M402.3,35.9c0,10,6.6,16.3,15.2,16.3c8.2,0,15-6.1,15-16.3c0-7.9-5.2-14.2-12.7-15.4
			c-1.8-0.2-3.6-0.2-5.3,0C407.1,21.7,402.3,27.6,402.3,35.9z" />
            <path d="M479,54.3c-2.9,1.3-6.2,2.2-9.2,2.2c-10.4,0-19.8-8.5-19.8-20.6c0-10,7.1-17.9,16.5-19.4c7.1-1,13.4,0.8,18.2,5.9
			c1.8,2.1-1.5,4.6-3.2,2.7c-4.1-4.4-9-5.1-14.3-4.5c-7.5,1.2-12.8,6.5-12.8,15.3c0,9.3,7.1,16.3,15.6,16.3c2.3,0,4.8-0.6,7.1-1.8
			c1.9-1,3.7-2.4,5-4.1c1.4-2.1,5.1,0.2,3.5,2.4C483.9,51.2,481.6,53,479,54.3z" />
        </g>
        <g>
            <path class="st2" d="M245.8,88.3c-0.3,0-0.5-0.1-0.7-0.3c-0.2-0.2-0.3-0.4-0.3-0.7V69.8c0-0.3,0.1-0.5,0.3-0.7
			c0.2-0.2,0.4-0.3,0.7-0.3h4.7c1.2,0,2.3,0.3,3.3,0.8c0.9,0.5,1.7,1.2,2.2,2.1c0.5,0.9,0.8,2,0.8,3.1c0,1.1-0.3,2.1-0.8,3
			c-0.5,0.9-1.3,1.6-2.2,2.1c-1,0.5-2,0.8-3.3,0.8h-3.7v6.7c0,0.3-0.1,0.5-0.3,0.7C246.3,88.3,246.1,88.3,245.8,88.3z M246.8,78.8
			h3.7c0.8,0,1.6-0.2,2.3-0.5c0.7-0.3,1.2-0.8,1.6-1.4c0.4-0.6,0.6-1.3,0.6-2c0-0.8-0.2-1.5-0.6-2.2c-0.4-0.6-0.9-1.1-1.6-1.5
			s-1.4-0.5-2.3-0.5h-3.7V78.8z M256.2,88.3c-0.2,0-0.4,0-0.5-0.1c-0.1-0.1-0.2-0.2-0.3-0.4l-4.8-7.6l1.9-0.5l4.5,7.1
			c0.3,0.4,0.3,0.8,0.1,1C257,88.2,256.7,88.3,256.2,88.3z" />
            <path class="st2" d="M266,88.5c-1.3,0-2.4-0.3-3.5-0.9c-1-0.6-1.8-1.4-2.4-2.5c-0.6-1.1-0.9-2.2-0.9-3.6c0-1.3,0.3-2.5,0.9-3.6
			c0.6-1.1,1.4-1.9,2.5-2.5c1-0.6,2.2-0.9,3.5-0.9s2.5,0.3,3.5,0.9c1,0.6,1.9,1.4,2.5,2.5c0.6,1,0.9,2.2,0.9,3.6l-0.8,0.6
			c0,1.2-0.3,2.3-0.8,3.2s-1.3,1.7-2.3,2.3C268.3,88.2,267.3,88.5,266,88.5z M266.2,86.7c1,0,1.8-0.2,2.6-0.7
			c0.8-0.5,1.4-1.1,1.8-1.9c0.4-0.8,0.7-1.7,0.7-2.7c0-1-0.2-1.9-0.7-2.7c-0.4-0.8-1-1.4-1.8-1.9c-0.8-0.5-1.6-0.7-2.6-0.7
			c-0.9,0-1.8,0.2-2.6,0.7c-0.8,0.5-1.4,1.1-1.8,1.9c-0.5,0.8-0.7,1.7-0.7,2.7c0,1,0.2,1.9,0.7,2.7c0.5,0.8,1.1,1.4,1.8,1.9
			C264.4,86.5,265.3,86.7,266.2,86.7z M272.2,88.3c-0.3,0-0.5-0.1-0.7-0.3c-0.2-0.2-0.3-0.4-0.3-0.7v-4.3l0.5-2l1.5,0.4v5.9
			c0,0.3-0.1,0.5-0.3,0.7C272.7,88.3,272.5,88.3,272.2,88.3z" />
            <path class="st2" d="M283.9,88.5c-1.3,0-2.5-0.3-3.5-0.9c-1-0.6-1.9-1.4-2.5-2.5s-0.9-2.2-0.9-3.5V69.8c0-0.3,0.1-0.5,0.3-0.7
			c0.2-0.2,0.4-0.3,0.7-0.3c0.3,0,0.5,0.1,0.7,0.3c0.2,0.2,0.3,0.4,0.3,0.7v7.3c0.5-0.8,1.3-1.4,2.2-1.9s1.9-0.7,3-0.7
			c1.3,0,2.4,0.3,3.4,0.9c1,0.6,1.8,1.4,2.4,2.5c0.6,1,0.9,2.2,0.9,3.5c0,1.3-0.3,2.5-0.9,3.6c-0.6,1-1.4,1.9-2.5,2.5
			C286.4,88.2,285.2,88.5,283.9,88.5z M283.9,86.7c1,0,1.8-0.2,2.6-0.7c0.8-0.5,1.4-1.1,1.8-1.9c0.4-0.8,0.7-1.7,0.7-2.7
			c0-1-0.2-1.9-0.7-2.7c-0.4-0.8-1-1.4-1.8-1.9c-0.8-0.5-1.6-0.7-2.6-0.7c-1,0-1.8,0.2-2.6,0.7s-1.4,1.1-1.8,1.9
			c-0.4,0.8-0.6,1.7-0.6,2.7c0,1,0.2,1.9,0.6,2.7s1,1.4,1.8,1.9C282.1,86.5,282.9,86.7,283.9,86.7z" />
            <path class="st2" d="M300.6,88.5c-1.3,0-2.4-0.3-3.5-0.9c-1-0.6-1.8-1.4-2.4-2.5c-0.6-1.1-0.9-2.2-0.9-3.6c0-1.3,0.3-2.5,0.9-3.6
			c0.6-1.1,1.4-1.9,2.5-2.5c1-0.6,2.2-0.9,3.5-0.9s2.5,0.3,3.5,0.9c1,0.6,1.9,1.4,2.5,2.5c0.6,1,0.9,2.2,0.9,3.6l-0.8,0.6
			c0,1.2-0.3,2.3-0.8,3.2s-1.3,1.7-2.3,2.3C302.9,88.2,301.9,88.5,300.6,88.5z M300.8,86.7c1,0,1.8-0.2,2.6-0.7
			c0.8-0.5,1.4-1.1,1.8-1.9c0.4-0.8,0.7-1.7,0.7-2.7c0-1-0.2-1.9-0.7-2.7c-0.4-0.8-1-1.4-1.8-1.9c-0.8-0.5-1.6-0.7-2.6-0.7
			c-0.9,0-1.8,0.2-2.6,0.7c-0.8,0.5-1.4,1.1-1.8,1.9c-0.5,0.8-0.7,1.7-0.7,2.7c0,1,0.2,1.9,0.7,2.7c0.5,0.8,1.1,1.4,1.8,1.9
			C299,86.5,299.9,86.7,300.8,86.7z M306.8,88.3c-0.3,0-0.5-0.1-0.7-0.3c-0.2-0.2-0.3-0.4-0.3-0.7v-4.3l0.5-2l1.5,0.4v5.9
			c0,0.3-0.1,0.5-0.3,0.7C307.3,88.3,307.1,88.3,306.8,88.3z" />
            <path class="st2" d="M310.7,76.8c-0.3,0-0.5-0.1-0.6-0.2c-0.2-0.2-0.3-0.4-0.3-0.6c0-0.3,0.1-0.5,0.3-0.6c0.2-0.2,0.4-0.2,0.6-0.2
			h6.4c0.3,0,0.5,0.1,0.6,0.2c0.2,0.2,0.3,0.4,0.3,0.6c0,0.2-0.1,0.4-0.3,0.6c-0.2,0.2-0.4,0.2-0.6,0.2H310.7z M316.9,88.3
			c-0.9,0-1.7-0.2-2.4-0.6c-0.7-0.4-1.2-1-1.6-1.7c-0.4-0.7-0.6-1.6-0.6-2.5V71.3c0-0.3,0.1-0.5,0.3-0.7c0.2-0.2,0.4-0.3,0.7-0.3
			c0.3,0,0.5,0.1,0.7,0.3c0.2,0.2,0.3,0.4,0.3,0.7v12.2c0,0.9,0.3,1.5,0.8,2.1s1.1,0.8,1.9,0.8h0.7c0.3,0,0.5,0.1,0.6,0.3
			c0.2,0.2,0.3,0.4,0.3,0.7c0,0.3-0.1,0.5-0.3,0.7c-0.2,0.2-0.5,0.3-0.8,0.3H316.9z" />
            <path class="st2" d="M335.2,88.6c-1.1,0-2.1-0.2-3-0.5s-1.7-0.7-2.4-1.3c-0.7-0.6-1.2-1.2-1.5-2c-0.1-0.3-0.1-0.5,0-0.7
			c0.1-0.2,0.3-0.4,0.6-0.5c0.2-0.1,0.5,0,0.7,0.1c0.2,0.1,0.4,0.3,0.5,0.5c0.3,0.5,0.6,0.9,1.1,1.3s1.1,0.7,1.7,0.9
			c0.7,0.2,1.4,0.3,2.2,0.3c0.9,0,1.7-0.1,2.3-0.4c0.7-0.3,1.2-0.7,1.6-1.3c0.4-0.6,0.6-1.2,0.6-2c0-1-0.4-1.9-1.1-2.6
			c-0.8-0.7-1.9-1.2-3.5-1.4c-2-0.2-3.5-0.8-4.6-1.8c-1.1-1-1.7-2.2-1.7-3.6c0-1,0.3-1.9,0.8-2.6s1.3-1.3,2.2-1.7
			c1-0.4,2-0.6,3.3-0.6c0.9,0,1.8,0.1,2.5,0.4s1.4,0.7,2,1.1c0.6,0.5,1,1,1.4,1.6c0.2,0.3,0.2,0.5,0.2,0.8s-0.2,0.4-0.4,0.6
			c-0.3,0.1-0.5,0.1-0.8,0c-0.3-0.1-0.5-0.2-0.6-0.5c-0.3-0.4-0.6-0.7-0.9-1.1c-0.4-0.3-0.8-0.6-1.4-0.8c-0.5-0.2-1.2-0.3-1.9-0.3
			c-1.3,0-2.4,0.3-3.2,0.8c-0.8,0.6-1.2,1.4-1.2,2.4c0,0.6,0.2,1.1,0.5,1.6s0.8,0.9,1.5,1.2s1.6,0.6,2.8,0.8
			c2.1,0.3,3.6,0.9,4.6,1.9c1,1,1.5,2.2,1.5,3.8c0,0.9-0.2,1.7-0.5,2.4c-0.3,0.7-0.8,1.3-1.4,1.8s-1.3,0.8-2.1,1.1
			C336.9,88.5,336.1,88.6,335.2,88.6z" />
            <path class="st2" d="M351.5,88.5c-1.3,0-2.4-0.3-3.5-0.9c-1-0.6-1.8-1.4-2.4-2.5c-0.6-1.1-0.9-2.2-0.9-3.6c0-1.3,0.3-2.5,0.9-3.6
			c0.6-1.1,1.4-1.9,2.5-2.5c1-0.6,2.2-0.9,3.5-0.9s2.5,0.3,3.5,0.9c1,0.6,1.9,1.4,2.5,2.5c0.6,1,0.9,2.2,0.9,3.6l-0.8,0.6
			c0,1.2-0.3,2.3-0.8,3.2s-1.3,1.7-2.3,2.3C353.8,88.2,352.7,88.5,351.5,88.5z M351.7,86.7c1,0,1.8-0.2,2.6-0.7
			c0.8-0.5,1.4-1.1,1.8-1.9c0.4-0.8,0.7-1.7,0.7-2.7c0-1-0.2-1.9-0.7-2.7c-0.4-0.8-1-1.4-1.8-1.9c-0.8-0.5-1.6-0.7-2.6-0.7
			c-0.9,0-1.8,0.2-2.6,0.7c-0.8,0.5-1.4,1.1-1.8,1.9c-0.5,0.8-0.7,1.7-0.7,2.7c0,1,0.2,1.9,0.7,2.7c0.5,0.8,1.1,1.4,1.8,1.9
			C349.9,86.5,350.7,86.7,351.7,86.7z M357.7,88.3c-0.3,0-0.5-0.1-0.7-0.3c-0.2-0.2-0.3-0.4-0.3-0.7v-4.3l0.5-2l1.5,0.4v5.9
			c0,0.3-0.1,0.5-0.3,0.7C358.2,88.3,357.9,88.3,357.7,88.3z" />
            <path class="st2" d="M365.3,88.3c-0.7,0-1.3-0.2-1.8-0.5c-0.5-0.4-0.9-0.9-1.2-1.5c-0.3-0.6-0.4-1.4-0.4-2.3V69.8
			c0-0.3,0.1-0.5,0.3-0.7c0.2-0.2,0.4-0.3,0.7-0.3c0.3,0,0.5,0.1,0.7,0.3c0.2,0.2,0.3,0.4,0.3,0.7V84c0,0.7,0.1,1.3,0.4,1.8
			c0.3,0.5,0.7,0.7,1.1,0.7h0.6c0.3,0,0.5,0.1,0.6,0.3c0.2,0.2,0.2,0.4,0.2,0.7c0,0.3-0.1,0.5-0.3,0.7c-0.2,0.2-0.5,0.3-0.8,0.3
			H365.3z" />
            <path class="st2" d="M374.9,88.5c-1.4,0-2.5-0.3-3.6-0.9c-1-0.6-1.9-1.4-2.5-2.5c-0.6-1-0.9-2.3-0.9-3.6c0-1.4,0.3-2.6,0.8-3.6
			c0.6-1,1.3-1.9,2.3-2.5s2.1-0.9,3.4-0.9c1.3,0,2.4,0.3,3.3,0.9c0.9,0.6,1.7,1.4,2.2,2.4s0.8,2.2,0.8,3.5c0,0.3-0.1,0.5-0.3,0.6
			c-0.2,0.2-0.4,0.2-0.6,0.2h-10.6v-1.6h10.8l-1.1,0.8c0-1-0.2-1.8-0.5-2.6s-0.9-1.4-1.6-1.8s-1.5-0.7-2.4-0.7c-1,0-1.8,0.2-2.5,0.7
			c-0.7,0.4-1.3,1.1-1.7,1.9c-0.4,0.8-0.6,1.7-0.6,2.7c0,1,0.2,1.9,0.7,2.7c0.4,0.8,1,1.4,1.8,1.9c0.8,0.4,1.7,0.7,2.7,0.7
			c0.6,0,1.2-0.1,1.8-0.3c0.6-0.2,1.1-0.5,1.5-0.8c0.2-0.1,0.4-0.2,0.6-0.2c0.2,0,0.4,0.1,0.6,0.2c0.2,0.2,0.3,0.4,0.3,0.6
			c0,0.2-0.1,0.4-0.3,0.6c-0.5,0.5-1.3,0.9-2.1,1.2C376.5,88.3,375.7,88.5,374.9,88.5z" />
            <path class="st2"
                d="M390.4,70.6c-0.3,0-0.5-0.1-0.7-0.3c-0.2-0.2-0.3-0.4-0.3-0.6c0-0.3,0.1-0.5,0.3-0.6c0.2-0.2,0.4-0.3,0.7-0.3
			h13.8c0.3,0,0.5,0.1,0.7,0.3c0.2,0.2,0.3,0.4,0.3,0.6c0,0.3-0.1,0.5-0.3,0.6c-0.2,0.2-0.4,0.3-0.7,0.3H390.4z M397.3,88.3
			c-0.3,0-0.5-0.1-0.7-0.3c-0.2-0.2-0.3-0.4-0.3-0.7V68.8h2v18.5c0,0.3-0.1,0.5-0.3,0.7C397.8,88.2,397.6,88.3,397.3,88.3z" />
            <path class="st2" d="M410.2,88.5c-1.4,0-2.5-0.3-3.6-0.9c-1-0.6-1.9-1.4-2.5-2.5c-0.6-1-0.9-2.3-0.9-3.6c0-1.4,0.3-2.6,0.8-3.6
			c0.6-1,1.3-1.9,2.3-2.5s2.1-0.9,3.4-0.9c1.3,0,2.4,0.3,3.3,0.9c0.9,0.6,1.7,1.4,2.2,2.4s0.8,2.2,0.8,3.5c0,0.3-0.1,0.5-0.3,0.6
			c-0.2,0.2-0.4,0.2-0.6,0.2h-10.6v-1.6h10.8l-1.1,0.8c0-1-0.2-1.8-0.5-2.6s-0.9-1.4-1.6-1.8s-1.5-0.7-2.4-0.7c-1,0-1.8,0.2-2.5,0.7
			c-0.7,0.4-1.3,1.1-1.7,1.9c-0.4,0.8-0.6,1.7-0.6,2.7c0,1,0.2,1.9,0.7,2.7c0.4,0.8,1,1.4,1.8,1.9c0.8,0.4,1.7,0.7,2.7,0.7
			c0.6,0,1.2-0.1,1.8-0.3c0.6-0.2,1.1-0.5,1.5-0.8c0.2-0.1,0.4-0.2,0.6-0.2c0.2,0,0.4,0.1,0.6,0.2c0.2,0.2,0.3,0.4,0.3,0.6
			c0,0.2-0.1,0.4-0.3,0.6c-0.5,0.5-1.3,0.9-2.1,1.2C411.8,88.3,411,88.5,410.2,88.5z" />
            <path class="st2" d="M420.3,88.3c-0.3,0-0.5-0.1-0.7-0.3c-0.2-0.2-0.3-0.4-0.3-0.7V75.6c0-0.3,0.1-0.5,0.3-0.7
			c0.2-0.2,0.4-0.3,0.7-0.3c0.3,0,0.5,0.1,0.7,0.3c0.2,0.2,0.3,0.4,0.3,0.7v11.8c0,0.3-0.1,0.5-0.3,0.7
			C420.8,88.3,420.6,88.3,420.3,88.3z M429.1,88.3c-0.3,0-0.5-0.1-0.7-0.3c-0.2-0.2-0.3-0.4-0.3-0.7v-7.2c0-1.2-0.3-2.1-0.9-2.8
			c-0.6-0.7-1.4-1-2.4-1c-1,0-1.9,0.3-2.5,1c-0.7,0.7-1,1.6-1,2.6h-1.4c0-1.1,0.3-2,0.7-2.8c0.4-0.8,1-1.5,1.8-1.9
			c0.8-0.5,1.6-0.7,2.6-0.7c1,0,1.9,0.2,2.6,0.7c0.8,0.5,1.4,1.1,1.8,2s0.6,1.9,0.6,3v7.2c0,0.3-0.1,0.5-0.3,0.7
			C429.6,88.3,429.4,88.3,429.1,88.3z M437.8,88.3c-0.3,0-0.5-0.1-0.7-0.3c-0.2-0.2-0.3-0.4-0.3-0.7v-7.2c0-1.2-0.3-2.1-0.9-2.8
			c-0.6-0.7-1.4-1-2.4-1c-1,0-1.9,0.3-2.5,1c-0.7,0.7-1,1.6-1,2.8h-1.7c0-1.1,0.3-2.1,0.7-2.9c0.5-0.9,1.1-1.5,1.9-2
			c0.8-0.5,1.7-0.7,2.8-0.7c1,0,1.9,0.2,2.6,0.7c0.8,0.5,1.3,1.1,1.8,2c0.4,0.9,0.6,1.9,0.6,3v7.2c0,0.3-0.1,0.5-0.3,0.7
			C438.3,88.3,438.1,88.3,437.8,88.3z" />
            <path class="st2" d="M449,88.5c-1.3,0-2.4-0.3-3.5-0.9c-1-0.6-1.8-1.4-2.4-2.5c-0.6-1.1-0.9-2.2-0.9-3.6c0-1.3,0.3-2.5,0.9-3.6
			c0.6-1.1,1.4-1.9,2.5-2.5c1-0.6,2.2-0.9,3.5-0.9s2.5,0.3,3.5,0.9c1,0.6,1.9,1.4,2.5,2.5c0.6,1,0.9,2.2,0.9,3.6l-0.8,0.6
			c0,1.2-0.3,2.3-0.8,3.2s-1.3,1.7-2.3,2.3C451.3,88.2,450.3,88.5,449,88.5z M449.2,86.7c1,0,1.8-0.2,2.6-0.7
			c0.8-0.5,1.4-1.1,1.8-1.9c0.4-0.8,0.7-1.7,0.7-2.7c0-1-0.2-1.9-0.7-2.7c-0.4-0.8-1-1.4-1.8-1.9c-0.8-0.5-1.6-0.7-2.6-0.7
			c-0.9,0-1.8,0.2-2.6,0.7c-0.8,0.5-1.4,1.1-1.8,1.9c-0.5,0.8-0.7,1.7-0.7,2.7c0,1,0.2,1.9,0.7,2.7c0.5,0.8,1.1,1.4,1.8,1.9
			C447.4,86.5,448.3,86.7,449.2,86.7z M455.2,88.3c-0.3,0-0.5-0.1-0.7-0.3c-0.2-0.2-0.3-0.4-0.3-0.7v-4.3l0.5-2l1.5,0.4v5.9
			c0,0.3-0.1,0.5-0.3,0.7C455.7,88.3,455.5,88.3,455.2,88.3z" />
            <path class="st2" d="M460.9,88.3c-0.3,0-0.5-0.1-0.7-0.3c-0.2-0.2-0.3-0.4-0.3-0.7V75.6c0-0.3,0.1-0.5,0.3-0.7
			c0.2-0.2,0.4-0.3,0.7-0.3s0.5,0.1,0.7,0.3c0.2,0.2,0.3,0.4,0.3,0.7v11.8c0,0.3-0.1,0.5-0.3,0.7C461.4,88.3,461.2,88.3,460.9,88.3z
			 M460.7,79.9c0-1,0.3-2,0.8-2.8c0.5-0.8,1.1-1.5,1.9-1.9c0.8-0.5,1.7-0.7,2.6-0.7c0.8,0,1.4,0.1,1.8,0.3c0.4,0.2,0.6,0.5,0.5,1
			c-0.1,0.3-0.2,0.4-0.3,0.5c-0.2,0.1-0.4,0.1-0.6,0.1c-0.2,0-0.5,0-0.8,0c-0.9-0.1-1.8,0-2.5,0.3c-0.7,0.3-1.3,0.7-1.7,1.3
			c-0.4,0.6-0.6,1.2-0.6,2H460.7z" />
            <path class="st2" d="M476.4,88.5c-1.3,0-2.4-0.3-3.5-0.9c-1-0.6-1.8-1.4-2.4-2.5c-0.6-1.1-0.9-2.2-0.9-3.6c0-1.3,0.3-2.5,0.9-3.6
			c0.6-1.1,1.4-1.9,2.5-2.5c1-0.6,2.2-0.9,3.5-0.9s2.5,0.3,3.5,0.9c1,0.6,1.9,1.4,2.5,2.5c0.6,1,0.9,2.2,0.9,3.6l-0.8,0.6
			c0,1.2-0.3,2.3-0.8,3.2s-1.3,1.7-2.3,2.3C478.7,88.2,477.6,88.5,476.4,88.5z M476.6,86.7c1,0,1.8-0.2,2.6-0.7
			c0.8-0.5,1.4-1.1,1.8-1.9c0.4-0.8,0.7-1.7,0.7-2.7c0-1-0.2-1.9-0.7-2.7c-0.4-0.8-1-1.4-1.8-1.9c-0.8-0.5-1.6-0.7-2.6-0.7
			c-0.9,0-1.8,0.2-2.6,0.7c-0.8,0.5-1.4,1.1-1.8,1.9c-0.5,0.8-0.7,1.7-0.7,2.7c0,1,0.2,1.9,0.7,2.7c0.5,0.8,1.1,1.4,1.8,1.9
			C474.8,86.5,475.7,86.7,476.6,86.7z M482.6,88.3c-0.3,0-0.5-0.1-0.7-0.3c-0.2-0.2-0.3-0.4-0.3-0.7v-4.3l0.5-2l1.5,0.4v5.9
			c0,0.3-0.1,0.5-0.3,0.7C483.1,88.3,482.9,88.3,482.6,88.3z" />
        </g>
    </g>



</svg>