<svg version="1.1" xmlns="http://www.w3.org/2000/svg" xmlns:xlink="http://www.w3.org/1999/xlink" x="0px" y="0px"
    width="222.7px" height="103.2px" viewBox="0 0 222.7 103.2" style="enable-background:new 0 0 222.7 103.2;"
    xml:space="preserve">
    <style type="text/css">
        .st0,
        .st1 {
            fill: none;
            stroke: #F19C1A;
            stroke-width: 5;
            stroke-miterlimit: 10;
            stroke-dasharray: 380;
            stroke-dashoffset: 0;
            stroke-linejoin: round;
            stroke-linecap: round;
            animation: anime 2s infinite cubic-bezier(0.175, 0.885, 0.32, 1.275);
        }



        @keyframes anime {
            0% {
                stroke-dashoffset: 380;

            }



            50%,
            100% {
                stroke-dashoffset: 0;
                opacity: 1;
            }
        }
    </style>
    <defs>
    </defs>
    <path class="st0" d="M33.1,88.3c-4.6,0-8.8-0.7-12.8-2c-4-1.3-7.4-3.3-10.4-5.8C7,78,4.7,75,3.2,71.6c-0.9-1.8-0.9-3.8,0-5.5
	c0.6-1.1,1.8-2.5,4.3-3.2c0.6-0.2,1.2-0.2,1.8-0.2c1,0,2.1,0.3,3,0.8c1.4,0.7,2.5,1.9,3.3,3.3c0.8,1.5,2,3,3.6,4.2
	c1.6,1.3,3.7,2.3,6,3.1c2.4,0.7,5.1,1.1,8,1.1c3.1,0,5.9-0.5,8.3-1.5c2.3-1,4-2.3,5.2-4.1c1.2-1.8,1.8-3.9,1.8-6.5
	c0-3.3-1.2-6.1-3.6-8.5c-2.5-2.5-6.7-4.1-12.5-4.8c-8.3-1-15-3.7-19.8-7.9c-5-4.4-7.6-10-7.6-16.5c0-4.7,1.3-8.8,3.8-12.3
	c2.5-3.4,5.9-6.1,10.1-7.9c4.1-1.8,8.9-2.7,14.2-2.7c4,0,7.7,0.7,11,1.9c3.3,1.3,6.2,3,8.7,5.1c2.4,2.1,4.5,4.4,6,6.9
	c1.3,2.1,1.3,4,1,5.2c-0.4,1.8-1.5,3.2-3.1,4.1l-0.1,0.1l-0.1,0c-1,0.4-2,0.7-3,0.7c-0.7,0-1.4-0.1-2.2-0.3c-1.7-0.5-3-1.6-3.9-3.1
	c-0.9-1.3-1.9-2.6-3.2-3.7c-1.2-1.1-2.8-2-4.5-2.7c-1.8-0.7-4.1-1.1-6.8-1.1c-4.6,0-8.3,1-11,2.8c-2.4,1.7-3.6,4.1-3.6,7.4
	c0,1.7,0.4,3.3,1.4,4.7c0.9,1.4,2.5,2.7,4.8,3.9c2.5,1.2,6,2.2,10.3,2.8c8.9,1.3,15.7,4.1,20.1,8.4c4.6,4.4,6.9,10.3,6.9,17.3
	c0,4-0.7,7.6-2.2,10.8c-1.5,3.2-3.6,5.9-6.3,8.1c-2.6,2.1-5.7,3.7-9.2,4.8C40.7,87.7,37,88.3,33.1,88.3z" />
    <path class="st0" d="M191.4,88.3c-4.6,0-8.8-0.7-12.8-2c-4-1.3-7.4-3.3-10.4-5.8c-3-2.5-5.3-5.5-6.8-8.9c-0.9-1.8-0.9-3.8,0-5.5
	c0.6-1.1,1.8-2.5,4.3-3.2c0.6-0.2,1.2-0.2,1.8-0.2c1,0,2.1,0.3,3,0.8c1.4,0.7,2.5,1.9,3.3,3.3c0.8,1.5,2,3,3.6,4.2
	c1.6,1.3,3.7,2.3,6,3.1c2.4,0.7,5.1,1.1,8,1.1c3.1,0,5.9-0.5,8.3-1.5c2.3-1,4-2.3,5.2-4.1c1.2-1.8,1.8-3.9,1.8-6.5
	c0-3.3-1.2-6.1-3.6-8.5c-2.5-2.5-6.7-4.1-12.5-4.8c-8.3-1-15-3.7-19.8-7.9c-5-4.4-7.6-10-7.6-16.5c0-4.7,1.3-8.8,3.8-12.3
	c2.5-3.4,5.9-6.1,10.1-7.9c4.1-1.8,8.9-2.7,14.2-2.7c4,0,7.7,0.7,11,1.9c3.3,1.3,6.2,3,8.7,5.1c2.4,2.1,4.5,4.4,6,6.9
	c1.3,2.1,1.3,4,1,5.2c-0.4,1.8-1.5,3.2-3.1,4.1l-0.1,0.1l-0.1,0c-1,0.4-2,0.7-3,0.7c-0.7,0-1.4-0.1-2.2-0.3c-1.7-0.5-3-1.6-3.9-3.1
	c-0.9-1.3-2-2.6-3.2-3.7c-1.2-1.1-2.8-2-4.5-2.7c-1.8-0.7-4.1-1.1-6.8-1.1c-4.6,0-8.3,1-11,2.8c-2.4,1.7-3.6,4.1-3.6,7.4
	c0,1.7,0.4,3.3,1.4,4.7c0.9,1.4,2.5,2.7,4.8,3.9c2.5,1.2,6,2.2,10.3,2.8c8.9,1.3,15.7,4.1,20.1,8.4c4.6,4.4,6.9,10.3,6.9,17.3
	c0,4-0.7,7.6-2.2,10.8c-1.5,3.2-3.6,5.9-6.3,8.1c-2.6,2.1-5.7,3.7-9.2,4.8C199,87.7,195.3,88.3,191.4,88.3z" />
    <path class="st0" d="M151.4,47.7c0,22.4-18.1,40.5-40.5,40.5c-2.1,0-4.1-0.1-6.1-0.4L92.3,99.5c-2.8,2.6-7.3,0.6-7.3-3.1V79
	c-9-7.4-14.7-18.7-14.7-31.3c0-22.4,18.1-40.5,40.5-40.5C133.2,7.2,151.4,25.3,151.4,47.7z" />
    <circle class="st1" cx="93.2" cy="46.8" r="2.5" />
    <circle class="st1" cx="109.1" cy="46.8" r="2.5" />
    <circle class="st1" cx="125.1" cy="46.8" r="2.5" />
</svg>