<svg width="20" height="22" viewBox="0 0 20 22" fill="none" xmlns="http://www.w3.org/2000/svg">
    <path
        d="M16.3114 11.5875C16.3014 9.79083 17.1296 8.4348 18.806 7.43614C17.868 6.11927 16.4511 5.39475 14.5801 5.25278C12.809 5.11571 10.8732 6.26613 10.1647 6.26613C9.41631 6.26613 7.70002 5.30174 6.35294 5.30174C3.56896 5.34579 0.610352 7.4802 0.610352 11.8224C0.610352 13.105 0.849834 14.4301 1.3288 15.7975C1.96742 17.5941 4.27243 22 6.67724 21.9266C7.93452 21.8972 8.8226 21.0503 10.4591 21.0503C12.0456 21.0503 12.8688 21.9266 14.2708 21.9266C16.6956 21.8923 18.7811 17.8878 19.3898 16.0863C16.1368 14.5834 16.3114 11.6805 16.3114 11.5875ZM13.4875 3.54918C14.8496 1.96306 14.7248 0.518914 14.6849 0C13.4825 0.0685358 12.0905 0.802848 11.2972 1.7085C10.4241 2.67779 9.91025 3.87717 10.02 5.2283C11.3222 5.32621 12.5096 4.67023 13.4875 3.54918Z"
        fill="black" />
</svg>