<svg width="20" height="20" viewBox="0 0 20 20" fill="none" xmlns="http://www.w3.org/2000/svg">
    <g clip-path="url(#clip0_72_17082)">
        <path
            d="M20 10C20 4.47656 15.5234 0 10 0C4.47656 0 0 4.47656 0 10C0 14.9918 3.65469 19.1289 8.43828 19.8793V12.893H5.90117V10H8.43828V7.79727C8.43828 5.29297 9.92852 3.90703 12.2137 3.90703C13.3094 3.90703 14.4547 4.1043 14.4547 4.1043V6.56445H13.1945C11.9508 6.56445 11.5672 7.33711 11.5672 8.12617V10H14.3398L13.8961 12.893H11.5672V19.8793C16.3453 19.1289 20 14.9918 20 10Z"
            fill="#4285F4" />
        <path
            d="M13.8903 12.8929L14.3344 9.99995H11.5618V8.12612C11.5618 7.33706 11.9508 6.5644 13.1891 6.5644H14.4493V4.10425C14.4493 4.10425 13.304 3.90698 12.2083 3.90698C9.92349 3.90698 8.43286 5.29331 8.43286 7.79722V9.99995H5.89575V12.8929H8.43286V19.8792C8.94263 19.9613 9.46294 20 9.99458 20C10.5262 20 11.0465 19.9562 11.5563 19.8792V12.8929H13.8903Z"
            fill="white" />
    </g>
    <defs>
        <clipPath id="clip0_72_17082">
            <rect width="20" height="20" fill="white" />
        </clipPath>
    </defs>
</svg>