<svg width="58" height="24" viewBox="0 0 58 24" fill="none" xmlns="http://www.w3.org/2000/svg">
    <path fill-rule="evenodd" clip-rule="evenodd"
        d="M26.8077 18.7139V11.7323H30.3315C31.7755 11.7323 32.9942 11.2375 33.9878 10.2618L34.2262 10.0144C36.0411 7.99413 35.9219 4.84692 33.9878 2.97783C33.0207 1.98831 31.696 1.45233 30.3315 1.47981H24.6748V18.7139H26.8077ZM26.808 9.61569V3.59612H30.3853C31.1538 3.59612 31.8825 3.89848 32.4258 4.44821C33.5785 5.60264 33.605 7.5267 32.492 8.72237C31.9488 9.31333 31.1803 9.64317 30.3853 9.61569H26.808Z"
        fill="#3C4043" />
    <path fill-rule="evenodd" clip-rule="evenodd"
        d="M44.1751 7.84285C43.261 6.97702 42.0158 6.53723 40.4393 6.53723C38.4125 6.53723 36.889 7.30686 35.8822 8.83236L37.7634 10.0555C38.4522 9.01103 39.3928 8.48878 40.5851 8.48878C41.3402 8.48878 42.0688 8.77739 42.6384 9.29963C43.1948 9.79439 43.5127 10.509 43.5127 11.2649V11.7734C42.6914 11.3062 41.6581 11.0588 40.3863 11.0588C38.9026 11.0588 37.7104 11.4161 36.8228 12.1445C35.9352 12.8729 35.4848 13.8349 35.4848 15.0581C35.4583 16.1713 35.922 17.2295 36.7433 17.9442C37.5779 18.7138 38.6377 19.0986 39.8829 19.0986C41.3534 19.0986 42.5192 18.4252 43.4068 17.0783H43.4995V18.7138H45.5396V11.4436C45.5396 9.91808 45.0892 8.70867 44.1751 7.84285ZM38.3864 16.5424C37.9491 16.2126 37.6841 15.6766 37.6841 15.0994C37.6841 14.4534 37.9756 13.9174 38.5454 13.4914C39.1283 13.0654 39.8571 12.8455 40.7183 12.8455C41.9107 12.8317 42.8382 13.1066 43.5007 13.6563C43.5007 14.5909 43.1429 15.4017 42.4407 16.0889C41.8047 16.7486 40.9435 17.1196 40.0426 17.1196C39.4463 17.1334 38.8633 16.9272 38.3864 16.5424Z"
        fill="#3C4043" />
    <path
        d="M50.1233 23.895L57.2504 6.92203H54.9321L51.6335 15.3879H51.5937L48.2156 6.92203H45.8973L50.5737 17.9579L47.9242 23.895H50.1233Z"
        fill="#3C4043" />
    <path
        d="M19.4444 10.2206C19.4444 9.54718 19.3914 8.87376 19.2854 8.21408H10.2904V12.021H15.4437C15.2317 13.2441 14.5428 14.3436 13.536 15.0308V17.5045H16.6094C18.4111 15.7866 19.4444 13.2441 19.4444 10.2206Z"
        fill="#4285F4" />
    <path
        d="M10.2908 19.896C12.8608 19.896 15.033 19.0163 16.6094 17.5045L13.536 15.0308C12.6749 15.6355 11.5758 15.9791 10.2908 15.9791C7.80025 15.9791 5.69391 14.2337 4.93881 11.8974H1.77268V14.4536C3.38886 17.7932 6.68747 19.896 10.2908 19.896Z"
        fill="#34A853" />
    <path
        d="M4.93881 11.8974C4.54132 10.6742 4.5417 9.34106 4.93919 8.10417V5.56166H1.77255C0.407848 8.35155 0.407848 11.6499 1.77255 14.4398L4.93881 11.8974Z"
        fill="#FBBC04" />
    <path
        d="M10.2908 4.02242C11.6553 3.99493 12.9668 4.53092 13.9471 5.50669L16.676 2.67557C14.9406 0.998892 12.6621 0.078092 10.2908 0.105579C6.68747 0.105579 3.38874 2.22204 1.77255 5.56166L4.93881 8.11792C5.69391 5.76781 7.80025 4.02242 10.2908 4.02242Z"
        fill="#EA4335" />
</svg>