<svg width="26" height="26" viewBox="0 0 26 26" fill="none" xmlns="http://www.w3.org/2000/svg">
    <path
        d="M12.9995 0.519989C6.10693 0.519989 0.519531 6.10739 0.519531 13C0.519531 19.8926 6.10693 25.48 12.9995 25.48C19.8921 25.48 25.4795 19.8926 25.4795 13C25.4795 6.10739 19.8921 0.519989 12.9995 0.519989ZM9.94453 18.1727H7.41733V10.0399H9.94453V18.1727ZM8.66533 9.04149C7.86713 9.04149 7.35103 8.47599 7.35103 7.77659C7.35103 7.06289 7.88273 6.51429 8.69783 6.51429C9.51293 6.51429 10.0121 7.06289 10.0277 7.77659C10.0277 8.47599 9.51293 9.04149 8.66533 9.04149ZM19.1745 18.1727H16.6473V13.6656C16.6473 12.6165 16.2807 11.9041 15.3668 11.9041C14.6687 11.9041 14.254 12.3864 14.0707 12.8505C14.0031 13.0156 13.9862 13.2496 13.9862 13.4823V18.1714H11.4577V12.6334C11.4577 11.6181 11.4252 10.7692 11.3914 10.0386H13.5871L13.7028 11.1683H13.7535C14.0863 10.6379 14.9014 9.85529 16.2651 9.85529C17.9278 9.85529 19.1745 10.9694 19.1745 13.364V18.1727Z"
        fill="#F7F7F7" fill-opacity="0.7" />
</svg>