<svg width="36" height="36" viewBox="0 0 36 36" fill="none" xmlns="http://www.w3.org/2000/svg">
    <rect width="36" height="36" rx="18" fill="white" />
    <path fill-rule="evenodd" clip-rule="evenodd"
        d="M12.2885 13.8268C12.4134 13.5863 12.6647 13.4221 12.9544 13.4221H23.4544C23.7441 13.4221 23.9954 13.5863 24.1204 13.8268L18.2044 17.7707L12.2885 13.8268ZM10.7045 14.1577C10.7043 14.166 10.7043 14.1742 10.7044 14.1824V21.6721C10.7044 22.9148 11.7118 23.9221 12.9544 23.9221H23.4544C24.6971 23.9221 25.7044 22.9148 25.7044 21.6721V14.1824M24.2044 15.5735V21.6721C24.2044 22.0863 23.8686 22.4221 23.4544 22.4221H12.9544C12.5402 22.4221 12.2044 22.0863 12.2044 21.6721V15.5735L17.7884 19.2962C18.0403 19.4641 18.3685 19.4641 18.6205 19.2962L24.2044 15.5735ZM25.7044 14.1577C25.6966 12.9217 24.6923 11.9221 23.4544 11.9221H12.9544C11.7166 11.9221 10.7122 12.9217 10.7045 14.1577"
        fill="#121212" />
</svg>