<svg width="84" height="22" viewBox="0 0 84 22" fill="none" xmlns="http://www.w3.org/2000/svg">
    <path
        d="M10.5531 0.0615236H4.21206C4.00214 0.0613903 3.79907 0.136766 3.63945 0.274068C3.47982 0.411371 3.37414 0.601573 3.34143 0.810403L0.776844 17.1858C0.765054 17.2618 0.769757 17.3395 0.790627 17.4135C0.811498 17.4874 0.84804 17.556 0.897739 17.6144C0.947439 17.6728 1.00911 17.7196 1.07852 17.7517C1.14792 17.7838 1.22341 17.8004 1.29977 17.8002H4.32703C4.53708 17.8003 4.74026 17.7248 4.89991 17.5874C5.05955 17.4499 5.16515 17.2594 5.19765 17.0504L5.88933 12.6337C5.92181 12.4249 6.02728 12.2346 6.18673 12.0971C6.34618 11.9596 6.54913 11.884 6.75903 11.8839H8.76638C12.9433 11.8839 15.354 9.84831 15.9836 5.81445C16.2673 4.04963 15.9956 2.66299 15.1751 1.69188C14.2738 0.625517 12.6754 0.0615236 10.5531 0.0615236ZM11.2846 6.04229C10.9378 8.33374 9.19938 8.33374 7.51839 8.33374H6.56154L7.23282 4.0543C7.25247 3.9291 7.31585 3.81507 7.41154 3.73274C7.50723 3.6504 7.62896 3.60516 7.75483 3.60516H8.19338C9.33845 3.60516 10.4186 3.60516 10.9768 4.26253C11.3096 4.65471 11.4116 5.23738 11.2846 6.04229ZM29.5075 5.96852H26.4709C26.3451 5.96852 26.2234 6.01376 26.1277 6.0961C26.032 6.17843 25.9686 6.29246 25.9489 6.41766L25.8145 7.27299L25.6022 6.96298C24.9448 6.00213 23.4789 5.68092 22.0158 5.68092C18.6604 5.68092 15.7944 8.24037 15.2363 11.8307C14.9461 13.6217 15.3587 15.3342 16.3674 16.5285C17.2928 17.6266 18.6168 18.0841 20.1921 18.0841C22.8957 18.0841 24.395 16.3333 24.395 16.3333L24.2596 17.183C24.2475 17.259 24.252 17.3367 24.2726 17.4108C24.2932 17.4849 24.3296 17.5536 24.3791 17.6121C24.4286 17.6707 24.4902 17.7178 24.5595 17.7501C24.6288 17.7824 24.7043 17.7992 24.7807 17.7993H27.5159C27.7259 17.7994 27.9291 17.7239 28.0888 17.5864C28.2484 17.4489 28.354 17.2585 28.3865 17.0495L30.0276 6.58293C30.0397 6.50713 30.0353 6.42959 30.0147 6.35567C29.9941 6.28175 29.9578 6.21321 29.9084 6.15479C29.8589 6.09637 29.7975 6.04946 29.7283 6.0173C29.659 5.98514 29.5837 5.96849 29.5075 5.96852ZM25.2749 11.9203C24.9819 13.6674 23.605 14.8402 21.8489 14.8402C20.9672 14.8402 20.2625 14.5554 19.8101 14.0157C19.3613 13.4797 19.1907 12.7168 19.3335 11.8671C19.607 10.135 21.0071 8.92388 22.7363 8.92388C23.5985 8.92388 24.2995 9.21242 24.7612 9.7568C25.2239 10.3068 25.4075 11.0743 25.2749 11.9203ZM45.6794 5.96852H42.628C42.4841 5.96875 42.3425 6.00433 42.2153 6.07219C42.0881 6.14004 41.9793 6.23811 41.8983 6.3579L37.6899 12.601L35.906 6.60161C35.8512 6.41863 35.7394 6.25826 35.5871 6.14424C35.4348 6.03022 35.2501 5.96861 35.0604 5.96852H32.0619C31.9777 5.96829 31.8947 5.98832 31.8198 6.02692C31.7448 6.06553 31.6801 6.12161 31.6311 6.19048C31.582 6.25935 31.55 6.33903 31.5376 6.42289C31.5253 6.50674 31.5331 6.59235 31.5602 6.67258L34.9213 16.606L31.7614 21.0983C31.7053 21.178 31.672 21.2716 31.6652 21.3691C31.6584 21.4665 31.6783 21.564 31.7228 21.6508C31.7674 21.7375 31.8347 21.8103 31.9176 21.8611C32.0005 21.9119 32.0956 21.9387 32.1926 21.9387H35.2402C35.3825 21.9389 35.5228 21.9043 35.6489 21.838C35.775 21.7716 35.8833 21.6755 35.9644 21.5577L46.1133 6.80424C46.1683 6.72442 46.2006 6.63096 46.2066 6.53399C46.2126 6.43701 46.1922 6.34023 46.1475 6.25413C46.1028 6.16803 46.0355 6.0959 45.953 6.04555C45.8705 5.9952 45.7759 5.96856 45.6794 5.96852Z"
        fill="#253B80" />
    <path
        d="M56.186 0.062683H49.7169C49.5029 0.0627703 49.296 0.136766 49.1333 0.271356C48.9707 0.405946 48.863 0.592295 48.8297 0.796874L46.2137 16.8511C46.2015 16.9255 46.2061 17.0015 46.2272 17.074C46.2484 17.1465 46.2855 17.2136 46.336 17.2709C46.3865 17.3281 46.4492 17.3741 46.5199 17.4056C46.5905 17.4372 46.6674 17.4535 46.7452 17.4535H50.0649C50.2147 17.4533 50.3594 17.4013 50.4732 17.307C50.5869 17.2127 50.6621 17.0822 50.6853 16.939L51.4278 12.3883C51.4609 12.1836 51.5685 11.997 51.7311 11.8622C51.8938 11.7274 52.1008 11.6533 52.3149 11.6532H54.3616C58.6233 11.6532 61.0814 9.65752 61.7246 5.70277C62.0149 3.97257 61.7359 2.61313 60.8989 1.66106C59.9805 0.615615 58.3509 0.062683 56.186 0.062683ZM56.9323 5.92614C56.5795 8.17266 54.8061 8.17266 53.0905 8.17266H52.1154L52.8011 3.97715C52.8207 3.8544 52.8851 3.74252 52.9826 3.66175C53.0801 3.58098 53.2043 3.53666 53.3326 3.53682H53.78C54.9471 3.53682 56.0498 3.53682 56.6192 4.18129C56.9587 4.56578 57.0618 5.13702 56.9323 5.92614ZM75.5198 5.85382H72.4243C72.2959 5.85348 72.1716 5.89773 72.0741 5.97853C71.9766 6.05933 71.9122 6.17132 71.8927 6.29415L71.7556 7.1327L71.5381 6.82878C70.8675 5.88678 69.3732 5.57186 67.8807 5.57186C64.4579 5.57186 61.5354 8.08111 60.9661 11.601C60.671 13.3569 61.09 15.0358 62.119 16.2066C63.0648 17.2832 64.4135 17.7318 66.0203 17.7318C68.7783 17.7318 70.3076 16.0153 70.3076 16.0153L70.1695 16.8484C70.1572 16.923 70.1618 16.9993 70.1829 17.0721C70.2041 17.1449 70.2413 17.2123 70.292 17.2698C70.3427 17.3272 70.4058 17.3733 70.4767 17.4049C70.5477 17.4365 70.6249 17.4527 70.7029 17.4526H73.4921C73.7062 17.4525 73.9132 17.3783 74.0759 17.2436C74.2385 17.1088 74.3461 16.9222 74.3792 16.7175L76.0542 6.45619C76.0661 6.38164 76.0611 6.30548 76.0397 6.23295C76.0183 6.16043 75.981 6.09324 75.9302 6.03601C75.8794 5.97878 75.8165 5.93287 75.7456 5.90142C75.6748 5.86997 75.5978 5.85373 75.5198 5.85382ZM71.2023 11.6889C70.9053 13.4017 69.499 14.5515 67.7076 14.5515C66.8101 14.5515 66.0894 14.2723 65.6278 13.7432C65.1701 13.2177 64.9979 12.4698 65.1417 11.6367C65.4226 9.93856 66.8489 8.75122 68.6127 8.75122C69.4923 8.75122 70.2074 9.03409 70.6784 9.5678C71.1522 10.107 71.3395 10.8595 71.2023 11.6889ZM79.1715 0.503014L76.5167 16.8511C76.5045 16.9255 76.5092 17.0015 76.5303 17.074C76.5514 17.1465 76.5885 17.2136 76.639 17.2709C76.6895 17.3281 76.7523 17.3741 76.8229 17.4056C76.8936 17.4372 76.9704 17.4535 77.0482 17.4535H79.7173C80.1608 17.4535 80.5372 17.1422 80.6053 16.7184L83.2233 0.665049C83.2354 0.590636 83.2308 0.514558 83.2097 0.442044C83.1886 0.369531 83.1515 0.302302 83.101 0.244979C83.0505 0.187656 82.9878 0.141599 82.9171 0.109972C82.8465 0.0783457 82.7696 0.0619009 82.6917 0.0617676H79.7031C79.5748 0.0622073 79.4508 0.106852 79.3534 0.187706C79.256 0.268559 79.1915 0.380337 79.1715 0.503014Z"
        fill="#179BD7" />
</svg>