<svg width="27" height="27" viewBox="0 0 27 27" fill="none" xmlns="http://www.w3.org/2000/svg">
    <path
        d="M25.2507 1.55839L6.88805 16.8505M11.2141 21.1927L15.4055 25.3619C15.6629 25.6255 15.9847 25.8174 16.3391 25.9186C16.6935 26.0198 17.0682 26.0268 17.4261 25.9388C17.786 25.855 18.1182 25.6801 18.3909 25.4309C18.6635 25.1816 18.8674 24.8665 18.9829 24.5158L25.8646 3.90066C26.0086 3.51455 26.0385 3.09523 25.9508 2.69262C25.863 2.29001 25.6614 1.92107 25.3698 1.62971C25.0783 1.33835 24.7091 1.13686 24.3062 1.04921C23.9033 0.961557 23.4837 0.991446 23.0973 1.13532L2.4677 8.01406C2.10461 8.13771 1.78117 8.35602 1.53081 8.64644C1.28045 8.93686 1.11226 9.28883 1.04364 9.66596C0.972761 10.0092 0.988415 10.3647 1.08919 10.7004C1.18997 11.0361 1.37271 11.3414 1.62096 11.589L6.88805 16.8524L6.71486 23.5177L11.2141 21.1946V21.1927Z"
        stroke="#F7F7F7" stroke-linecap="round" stroke-linejoin="round" />
</svg>