<svg version="1.1" xmlns="http://www.w3.org/2000/svg" xmlns:xlink="http://www.w3.org/1999/xlink" x="0px" y="0px"
    width="36px" height="36px" viewBox="0 0 36 36" style="enable-background:new 0 0 36 36;" xml:space="preserve">
    <style type="text/css">
        .st0 {
            fill: #FFFFFF;
        }

        .st1 {
            fill: none;
            stroke: #000000;
            stroke-width: 1.5;
            stroke-linecap: round;
        }
    </style>
    <defs>
    </defs>
    <path class="st0"
        d="M18,0L18,0c9.9,0,18,8.1,18,18l0,0c0,9.9-8.1,18-18,18l0,0C8.1,36,0,27.9,0,18l0,0C0,8.1,8.1,0,18,0z" />
    <path class="st1" d="M24.4,16.3c-0.4,0.1-1.5,0.2-3-0.8c-0.1,0-0.2,0-0.2,0c0,0,0,0.1,0,0.1c0,0,0,3.1,0,4.2c0,0.8,0,6.4-5.4,5.7
	c0,0-4.3-0.3-4.3-5.1c0,0,0.1-4.3,5.1-4.7c0.1,0,0.2,0.1,0.2,0.1c0,0,0,0,0,0v2.2c0,0.1-0.1,0.1-0.1,0.2c-0.6,0.1-3,0.6-2.7,2.7
	c0.1,1.2,1.1,2,2.3,2c0,0,2.2,0.2,2.3-2.8v-9.7c0-0.1,0.1-0.2,0.2-0.2h2.1c0.1,0,0.1,0.1,0.2,0.1c0.1,0.6,0.8,3.1,3.4,3.2
	c0.1,0,0.1,0.1,0.1,0.2v2.3C24.5,16.3,24.5,16.3,24.4,16.3z" />
</svg>