<svg width="33" height="33" viewBox="0 0 33 33" fill="none" xmlns="http://www.w3.org/2000/svg">
    <path fill-rule="evenodd" clip-rule="evenodd"
        d="M3.16675 6.41675C2.75253 6.41675 2.41675 6.75253 2.41675 7.16675C2.41675 7.58096 2.75253 7.91675 3.16675 7.91675H17.0834V8.50008V15.1667V22.4167H13.1675C12.8257 20.8906 11.4627 19.7501 9.83341 19.7501C8.2041 19.7501 6.84115 20.8906 6.49932 22.4167H5.25008V17.8334C5.25008 17.4192 4.91429 17.0834 4.50008 17.0834C4.08587 17.0834 3.75008 17.4192 3.75008 17.8334V23.1667C3.75008 23.581 4.08587 23.9167 4.50008 23.9167H6.49932C6.84115 25.4429 8.2041 26.5834 9.83341 26.5834C11.4627 26.5834 12.8257 25.4429 13.1675 23.9167H17.8334H19.8327C20.1745 25.4429 21.5374 26.5834 23.1667 26.5834C24.7961 26.5834 26.159 25.4429 26.5008 23.9167H28.5001C28.9143 23.9167 29.2501 23.581 29.2501 23.1667V15.179C29.2513 15.1082 29.2425 15.0367 29.2231 14.9668C29.2038 14.8966 29.1745 14.8306 29.1369 14.7703L25.1432 8.11421C25.0077 7.88831 24.7635 7.75008 24.5001 7.75008H18.5834V7.16675C18.5834 6.75253 18.2476 6.41675 17.8334 6.41675H3.16675ZM26.5008 22.4167H27.7501V15.9167H18.5834V22.4167H19.8327C20.1745 20.8906 21.5374 19.7501 23.1667 19.7501C24.7961 19.7501 26.159 20.8906 26.5008 22.4167ZM7.91675 23.1675C7.91714 24.2257 8.77511 25.0834 9.83341 25.0834C10.892 25.0834 11.7501 24.2253 11.7501 23.1667C11.7501 22.1082 10.892 21.2501 9.83341 21.2501C8.77487 21.2501 7.91675 22.1082 7.91675 23.1667C7.91675 23.167 7.91675 23.1672 7.91675 23.1675ZM18.5834 14.4167V9.25008H24.0754L27.1754 14.4167H18.5834ZM23.1667 21.2501C22.1082 21.2501 21.2501 22.1082 21.2501 23.1667C21.2501 24.2253 22.1082 25.0834 23.1667 25.0834C24.2253 25.0834 25.0834 24.2253 25.0834 23.1667C25.0834 22.1082 24.2253 21.2501 23.1667 21.2501Z"
        fill="#121212" />
</svg>