<svg width="26" height="26" viewBox="0 0 26 26" fill="none" xmlns="http://www.w3.org/2000/svg">
    <path
        d="M15.0834 12.7829L12.1636 11.4205C11.9088 11.3022 11.6995 11.4348 11.6995 11.7169V14.2831C11.6995 14.5652 11.9088 14.6978 12.1636 14.5795L15.0821 13.2171C15.3382 13.0975 15.3382 12.9025 15.0834 12.7829ZM12.9995 0.519989C6.10693 0.519989 0.519531 6.10739 0.519531 13C0.519531 19.8926 6.10693 25.48 12.9995 25.48C19.8921 25.48 25.4795 19.8926 25.4795 13C25.4795 6.10739 19.8921 0.519989 12.9995 0.519989ZM12.9995 18.07C6.61133 18.07 6.49953 17.4941 6.49953 13C6.49953 8.50589 6.61133 7.92999 12.9995 7.92999C19.3877 7.92999 19.4995 8.50589 19.4995 13C19.4995 17.4941 19.3877 18.07 12.9995 18.07Z"
        fill="#F7F7F7" fill-opacity="0.7" />
</svg>